<?xml version="1.0" encoding="UTF-8"?>
<svg version="1.1" xmlns="http://www.w3.org/2000/svg" width="204" height="192">
<path d="M0 0 C67.32 0 134.64 0 204 0 C204 63.36 204 126.72 204 192 C136.68 192 69.36 192 0 192 C0 128.64 0 65.28 0 0 Z " fill="#B9B9BE" transform="translate(0,0)"/>
<path d="M0 0 C31.68 0 63.36 0 96 0 C96 0.33 96 0.66 96 1 C94.02 1 92.04 1 90 1 C90 2.98 90 4.96 90 7 C88.02 7 86.04 7 84 7 C84 23.17 84 39.34 84 56 C87.96 56 91.92 56 96 56 C96 58.31 96 60.62 96 63 C93.02077407 63.02683987 90.04178705 63.04676037 87.0625 63.0625 C86.21236328 63.07087891 85.36222656 63.07925781 84.48632812 63.08789062 C83.67744141 63.09111328 82.86855469 63.09433594 82.03515625 63.09765625 C81.2862915 63.10289307 80.53742676 63.10812988 79.76586914 63.11352539 C78 63 78 63 77 62 C76.95936168 60.33382885 76.957279 58.66611905 77 57 C75.02 57 73.04 57 71 57 C71 55.02 71 53.04 71 51 C67.04 51 63.08 51 59 51 C58.67 49.35 58.34 47.7 58 46 C56.68 46 55.36 46 54 46 C54 50.95 54 55.9 54 61 C55.65 61.33 57.3 61.66 59 62 C59.04254356 63.99954746 59.04080783 66.00041636 59 68 C58.67 68.33 58.34 68.66 58 69 C56.35 69 54.7 69 53 69 C52.67 74.94 52.34 80.88 52 87 C47.05 87.495 47.05 87.495 42 88 C41.67 93.94 41.34 99.88 41 106 C39.02 106 37.04 106 35 106 C35 111.94 35 117.88 35 124 C36.65 124 38.3 124 40 124 C40.02721176 125.89575251 40.04649136 127.79161979 40.0625 129.6875 C40.07410156 130.74324219 40.08570313 131.79898438 40.09765625 132.88671875 C40.00865425 135.72410262 39.64939838 138.2438919 39 141 C37.35 141 35.7 141 34 141 C34 147.6 34 154.2 34 161 C32.02 161 30.04 161 28 161 C28 166.61 28 172.22 28 178 C31.96 178.33 35.92 178.66 40 179 C40 182.96 40 186.92 40 191 C37.08361706 191.17374196 34.16709069 191.33890693 31.25 191.5 C30.07050781 191.57154297 30.07050781 191.57154297 28.8671875 191.64453125 C19.21604603 192.1642081 9.7175238 192 0 192 C0 128.64 0 65.28 0 0 Z " fill="#FEFEFE" transform="translate(0,0)"/>
<path d="M0 0 C0.99 0.33 1.98 0.66 3 1 C3.6875 3.0625 3.6875 3.0625 4 5 C4.66 5 5.32 5 6 5 C7.06162705 13.15002924 6.84388104 20.83382806 6 29 C6.94875 28.835 7.8975 28.67 8.875 28.5 C12 28 12 28 14 28 C14.99 27.505 14.99 27.505 16 27 C16 27.99 16 28.98 16 30 C16.66 30 17.32 30 18 30 C18 30.66 18 31.32 18 32 C18.99 32 19.98 32 21 32 C21 32.66 21 33.32 21 34 C22.485 34.495 22.485 34.495 24 35 C24 35.66 24 36.32 24 37 C25.65 37.33 27.3 37.66 29 38 C28.98428955 38.68102783 28.9685791 39.36205566 28.95239258 40.0637207 C28.89006778 43.14656281 28.85101742 46.22927244 28.8125 49.3125 C28.78736328 50.38435547 28.76222656 51.45621094 28.73632812 52.56054688 C28.72666016 53.58857422 28.71699219 54.61660156 28.70703125 55.67578125 C28.6913208 56.62364502 28.67561035 57.57150879 28.65942383 58.5480957 C29.06094095 61.43873119 29.85678644 62.13082397 32 64 C32 64.66 32 65.32 32 66 C37.28 66 42.56 66 48 66 C48 64.02 48 62.04 48 60 C50.31 60 52.62 60 55 60 C55 63.96 55 67.92 55 72 C50.71 72 46.42 72 42 72 C42.495 80.91 42.495 80.91 43 90 C44.98 90.33 46.96 90.66 49 91 C49 96.94 49 102.88 49 109 C47.02 109 45.04 109 43 109 C43.01160156 110.28777344 43.02320312 111.57554687 43.03515625 112.90234375 C43.0445327 114.58072772 43.05363305 116.25911326 43.0625 117.9375 C43.07087891 118.78763672 43.07925781 119.63777344 43.08789062 120.51367188 C43.09111328 121.32255859 43.09433594 122.13144531 43.09765625 122.96484375 C43.10289307 123.7137085 43.10812988 124.46257324 43.11352539 125.23413086 C43 127 43 127 42 128 C40.62123975 128.0953919 39.23763084 128.12188622 37.85557556 128.12025452 C36.96230057 128.12162918 36.06902557 128.12300385 35.14868164 128.12442017 C34.16109863 128.12082489 33.17351562 128.11722961 32.15600586 128.11352539 C30.6049691 128.11374443 30.6049691 128.11374443 29.02259827 128.1139679 C25.58665914 128.11326827 22.15077347 128.10547358 18.71484375 128.09765625 C16.33972707 128.09579225 13.96461 128.09436826 11.5894928 128.09336853 C5.32423856 128.08954197 -0.94099267 128.0797105 -7.20623779 128.06866455 C-13.5938689 128.0584534 -19.98150371 128.05387155 -26.36914062 128.04882812 C-38.91277026 128.03808836 -51.45638391 128.02120127 -64 128 C-64 127.67 -64 127.34 -64 127 C-57.4 127 -50.8 127 -44 127 C-44 123.04 -44 119.08 -44 115 C-46.9296875 115.04882812 -46.9296875 115.04882812 -49.859375 115.09765625 C-52 115 -52 115 -56 114 C-56 108.39 -56 102.78 -56 97 C-53.69 97 -51.38 97 -49 97 C-49 91.06 -49 85.12 -49 79 C-46.525 78.505 -46.525 78.505 -44 78 C-43.67 76.02 -43.34 74.04 -43 72 C-39.37 72 -35.74 72 -32 72 C-32 70.02 -32 68.04 -32 66 C-29.69 66 -27.38 66 -25 66 C-25 63.69 -25 61.38 -25 59 C-26.98 59 -28.96 59 -31 59 C-31 55.37 -31 51.74 -31 48 C-27.04 48 -23.08 48 -19 48 C-19 43.71 -19 39.42 -19 35 C-15.04 35 -11.08 35 -7 35 C-7 31.04 -7 27.08 -7 23 C-4.69 23 -2.38 23 0 23 C0 15.41 0 7.82 0 0 Z " fill="#ABACB2" transform="translate(84,64)"/>
<path d="M0 0 C23.76 0 47.52 0 72 0 C72 63.36 72 126.72 72 192 C66.72 192 61.44 192 56 192 C56 190.02 56 188.04 56 186 C55.27820557 186.00523682 54.55641113 186.01047363 53.81274414 186.01586914 C50.56267151 186.03657358 47.31261272 186.04963918 44.0625 186.0625 C42.35803711 186.07506836 42.35803711 186.07506836 40.61914062 186.08789062 C39.53955078 186.09111328 38.45996094 186.09433594 37.34765625 186.09765625 C36.34742432 186.10289307 35.34719238 186.10812988 34.31665039 186.11352539 C32 186 32 186 31 185 C30.95936168 183.33382885 30.957279 181.66611905 31 180 C30.21753906 180.01160156 29.43507812 180.02320313 28.62890625 180.03515625 C27.61699219 180.04417969 26.60507813 180.05320313 25.5625 180.0625 C24.55316406 180.07410156 23.54382813 180.08570313 22.50390625 180.09765625 C20 180 20 180 19 179 C18.9016279 177.66956375 18.86921408 176.33406656 18.8671875 175 C18.86525391 173.7934375 18.86525391 173.7934375 18.86328125 172.5625 C18.86714844 171.716875 18.87101562 170.87125 18.875 170 C18.86919922 168.7315625 18.86919922 168.7315625 18.86328125 167.4375 C18.86457031 166.633125 18.86585938 165.82875 18.8671875 165 C18.86831543 164.2575 18.86944336 163.515 18.87060547 162.75 C19 161 19 161 20 160 C22.6662603 159.91144839 25.30647114 159.88475327 27.97265625 159.90234375 C28.77029892 159.9037587 29.56794159 159.90517365 30.38975525 159.90663147 C32.94737435 159.91224684 35.50490718 159.92480188 38.0625 159.9375 C39.79231645 159.94251302 41.52213426 159.94707627 43.25195312 159.95117188 C47.50133553 159.96222125 51.75065312 159.97949614 56 160 C56 158.02 56 156.04 56 154 C57.98 154 59.96 154 62 154 C62 152.02 62 150.04 62 148 C63.98 148 65.96 148 68 148 C68 135.79 68 123.58 68 111 C66.02 111 64.04 111 62 111 C62 109.02 62 107.04 62 105 C60.35 105 58.7 105 57 105 C57 103.02 57 101.04 57 99 C52.71 99 48.42 99 44 99 C43.67 97.35 43.34 95.7 43 94 C41.35 93.67 39.7 93.34 38 93 C37.67 91.02 37.34 89.04 37 87 C35.35 86.67 33.7 86.34 32 86 C32 84.35 32 82.7 32 81 C34.475 80.505 34.475 80.505 37 80 C37.33 74.06 37.66 68.12 38 62 C39.98 62 41.96 62 44 62 C44 58.04 44 54.08 44 50 C42.02 50 40.04 50 38 50 C38 51.98 38 53.96 38 56 C32.06 56 26.12 56 20 56 C20 57.98 20 59.96 20 62 C13.73 62 7.46 62 1 62 C1 59.69 1 57.38 1 55 C4.96 55 8.92 55 13 55 C12.94670532 53.45844238 12.94670532 53.45844238 12.89233398 51.88574219 C12.76045037 48.01681347 12.63784472 44.14763362 12.51782227 40.27832031 C12.46495407 38.6141775 12.40967978 36.95010909 12.35180664 35.28613281 C12.02284626 25.77774759 11.87162025 16.47415407 13 7 C10.69 7 8.38 7 6 7 C6 5.35 6 3.7 6 2 C4.02 2 2.04 2 0 2 C0 1.34 0 0.68 0 0 Z " fill="#FDFDFD" transform="translate(132,0)"/>
<path d="M0 0 C3.96 0 7.92 0 12 0 C12 1.98 12 3.96 12 6 C13.98 6 15.96 6 18 6 C18 7.65 18 9.3 18 11 C19.98 11 21.96 11 24 11 C24 23.21 24 35.42 24 48 C22.02 48 20.04 48 18 48 C18 49.98 18 51.96 18 54 C16.02 54 14.04 54 12 54 C12 55.98 12 57.96 12 60 C0.12 60.33 -11.76 60.66 -24 61 C-24 66.94 -24 72.88 -24 79 C-20.37 79.33 -16.74 79.66 -13 80 C-12.67 81.65 -12.34 83.3 -12 85 C-4.08 85.33 3.84 85.66 12 86 C12 87.98 12 89.96 12 92 C-8.46 92 -28.92 92 -50 92 C-49.67 85.73 -49.34 79.46 -49 73 C-47.02 73 -45.04 73 -43 73 C-43 67.06 -43 61.12 -43 55 C-44.98 55 -46.96 55 -49 55 C-50 54 -50 54 -50.11352539 52.23413086 C-50.10828857 51.48526611 -50.10305176 50.73640137 -50.09765625 49.96484375 C-50.09443359 49.15595703 -50.09121094 48.34707031 -50.08789062 47.51367188 C-50.07951172 46.66353516 -50.07113281 45.81339844 -50.0625 44.9375 C-50.05798828 44.08349609 -50.05347656 43.22949219 -50.04882812 42.34960938 C-50.03700373 40.23304337 -50.01906769 38.11651315 -50 36 C-45.71 36 -41.42 36 -37 36 C-37 32.04 -37 28.08 -37 24 C-35.02 24 -33.04 24 -31 24 C-31.01160156 22.71222656 -31.02320313 21.42445312 -31.03515625 20.09765625 C-31.0445327 18.41927228 -31.05363305 16.74088674 -31.0625 15.0625 C-31.07087891 14.21236328 -31.07925781 13.36222656 -31.08789062 12.48632812 C-31.09272461 11.27299805 -31.09272461 11.27299805 -31.09765625 10.03515625 C-31.10551147 8.91185913 -31.10551147 8.91185913 -31.11352539 7.76586914 C-31 6 -31 6 -30 5 C-28.02 5 -26.04 5 -24 5 C-24 8.96 -24 12.92 -24 17 C-22.35 17 -20.7 17 -19 17 C-18 18 -18 18 -18 23 C-10.08 23.33 -2.16 23.66 6 24 C5.505 18.555 5.505 18.555 5 13 C2.525 12.505 2.525 12.505 0 12 C0 8.04 0 4.08 0 0 Z " fill="#C8B145" transform="translate(176,100)"/>
<path d="M0 0 C1.1858519 0.00212242 1.1858519 0.00212242 2.3956604 0.00428772 C4.90183416 0.00985121 7.40791608 0.02239681 9.9140625 0.03515625 C11.62109245 0.04017597 13.32812382 0.04473805 15.03515625 0.04882812 C19.20315998 0.05980866 23.37109571 0.07704786 27.5390625 0.09765625 C27.5390625 0.75765625 27.5390625 1.41765625 27.5390625 2.09765625 C29.5190625 2.09765625 31.4990625 2.09765625 33.5390625 2.09765625 C33.5390625 3.74765625 33.5390625 5.39765625 33.5390625 7.09765625 C35.8490625 7.09765625 38.1590625 7.09765625 40.5390625 7.09765625 C40.5390625 11.05765625 40.5390625 15.01765625 40.5390625 19.09765625 C32.04296875 19.1953125 32.04296875 19.1953125 29.5390625 19.09765625 C28.5390625 18.09765625 28.5390625 18.09765625 28.4765625 15.53515625 C28.4971875 14.73078125 28.5178125 13.92640625 28.5390625 13.09765625 C26.5590625 13.09765625 24.5790625 13.09765625 22.5390625 13.09765625 C22.5390625 11.11765625 22.5390625 9.13765625 22.5390625 7.09765625 C20.5590625 7.09765625 18.5790625 7.09765625 16.5390625 7.09765625 C16.5390625 9.07765625 16.5390625 11.05765625 16.5390625 13.09765625 C14.5590625 13.09765625 12.5790625 13.09765625 10.5390625 13.09765625 C10.5390625 15.07765625 10.5390625 17.05765625 10.5390625 19.09765625 C14.4990625 19.09765625 18.4590625 19.09765625 22.5390625 19.09765625 C22.5390625 20.74765625 22.5390625 22.39765625 22.5390625 24.09765625 C26.4990625 24.42765625 30.4590625 24.75765625 34.5390625 25.09765625 C34.5390625 27.40765625 34.5390625 29.71765625 34.5390625 32.09765625 C30.5790625 32.09765625 26.6190625 32.09765625 22.5390625 32.09765625 C22.5390625 39.68765625 22.5390625 47.27765625 22.5390625 55.09765625 C24.1890625 55.09765625 25.8390625 55.09765625 27.5390625 55.09765625 C27.5390625 57.73765625 27.5390625 60.37765625 27.5390625 63.09765625 C15.6590625 63.09765625 3.7790625 63.09765625 -8.4609375 63.09765625 C-8.4609375 60.78765625 -8.4609375 58.47765625 -8.4609375 56.09765625 C-12.4209375 56.09765625 -16.3809375 56.09765625 -20.4609375 56.09765625 C-20.4609375 39.92765625 -20.4609375 23.75765625 -20.4609375 7.09765625 C-18.4809375 7.09765625 -16.5009375 7.09765625 -14.4609375 7.09765625 C-14.4609375 5.11765625 -14.4609375 3.13765625 -14.4609375 1.09765625 C-9.61760845 0.12966033 -4.91955734 -0.03356461 0 0 Z " fill="#A8A8AF" transform="translate(104.4609375,-0.09765625)"/>
<path d="M0 0 C2.31 0 4.62 0 7 0 C7 1.98 7 3.96 7 6 C5.02 6 3.04 6 1 6 C1 9.96 1 13.92 1 18 C2.65 18 4.3 18 6 18 C7 19 7 19 7.0625 21.5625 C7.041875 22.366875 7.02125 23.17125 7 24 C8.98 24 10.96 24 13 24 C13 26.31 13 28.62 13 31 C14.98 31 16.96 31 19 31 C19 38.92 19 46.84 19 55 C15.101875 55.04125 11.20375 55.0825 7.1875 55.125 C5.34901489 55.15231201 5.34901489 55.15231201 3.47338867 55.18017578 C2.5063501 55.1851709 1.53931152 55.19016602 0.54296875 55.1953125 C-0.9416687 55.21102295 -0.9416687 55.21102295 -2.45629883 55.22705078 C-5 55 -5 55 -8 53 C-8 53.66 -8 54.32 -8 55 C-8.99 55 -9.98 55 -11 55 C-11 53.02 -11 51.04 -11 49 C-11.60328125 49.01160156 -12.2065625 49.02320313 -12.828125 49.03515625 C-14.02695312 49.04869141 -14.02695312 49.04869141 -15.25 49.0625 C-16.03890625 49.07410156 -16.8278125 49.08570313 -17.640625 49.09765625 C-20 49 -20 49 -24 48 C-24 42.39 -24 36.78 -24 31 C-21.69 31 -19.38 31 -17 31 C-17 25.06 -17 19.12 -17 13 C-15.35 12.67 -13.7 12.34 -12 12 C-11.67 10.02 -11.34 8.04 -11 6 C-7.37 6 -3.74 6 0 6 C0 4.02 0 2.04 0 0 Z " fill="#271E1E" transform="translate(52,130)"/>
<path d="M0 0 C6.27 0 12.54 0 19 0 C19 6.27 19 12.54 19 19 C22.465 18.505 22.465 18.505 26 18 C26 19.65 26 21.3 26 23 C37.55 23 49.1 23 61 23 C61 21.35 61 19.7 61 18 C61.33 18 61.66 18 62 18 C62 19.98 62 21.96 62 24 C50.12 24.33 38.24 24.66 26 25 C26 30.94 26 36.88 26 43 C29.63 43.33 33.26 43.66 37 44 C37.495 46.475 37.495 46.475 38 49 C45.92 49.33 53.84 49.66 62 50 C62 51.98 62 53.96 62 56 C41.54 56 21.08 56 0 56 C0.33 49.73 0.66 43.46 1 37 C2.98 37 4.96 37 7 37 C7 31.06 7 25.12 7 19 C5.02 19 3.04 19 1 19 C0 18 0 18 -0.11352539 16.23413086 C-0.10828857 15.48526611 -0.10305176 14.73640137 -0.09765625 13.96484375 C-0.09515869 13.23644287 -0.09266113 12.50804199 -0.09008789 11.75756836 C-0.08098389 10.8269458 -0.07187988 9.89632324 -0.0625 8.9375 C-0.041875 5.988125 -0.02125 3.03875 0 0 Z " fill="#9E9EA2" transform="translate(126,136)"/>
<path d="M0 0 C14.19 0 28.38 0 43 0 C43 6.27 43 12.54 43 19 C41.02 19 39.04 19 37 19 C37 21.31 37 23.62 37 26 C35.02 26 33.04 26 31 26 C31.00785522 27.0372522 31.00785522 27.0372522 31.01586914 28.09545898 C31.036575 31.20946352 31.04963963 34.32345361 31.0625 37.4375 C31.07087891 38.52611328 31.07925781 39.61472656 31.08789062 40.73632812 C31.09272461 42.28803711 31.09272461 42.28803711 31.09765625 43.87109375 C31.10551147 45.30859985 31.10551147 45.30859985 31.11352539 46.77514648 C31 49 31 49 30 50 C28.65732587 50.08631874 27.31025678 50.10706473 25.96484375 50.09765625 C24.87224243 50.09390991 24.87224243 50.09390991 23.75756836 50.09008789 C22.8269458 50.08098389 21.89632324 50.07187988 20.9375 50.0625 C16.5134375 50.0315625 16.5134375 50.0315625 12 50 C11.67 42.08 11.34 34.16 11 26 C8.525 25.01 8.525 25.01 6 24 C6 22.35 6 20.7 6 19 C5.195625 19.020625 4.39125 19.04125 3.5625 19.0625 C1 19 1 19 0 18 C0 12.06 0 6.12 0 0 Z " fill="#C7B359" transform="translate(102,74)"/>
<path d="M0 0 C0.20625 0.61875 0.4125 1.2375 0.625 1.875 C2.17244186 4.75158623 2.17244186 4.75158623 8 6 C8 11.61 8 17.22 8 23 C9.65 23 11.3 23 13 23 C13 21.02 13 19.04 13 17 C16.96 17 20.92 17 25 17 C25 17.33 25 17.66 25 18 C23.35 18 21.7 18 20 18 C20 19.65 20 21.3 20 23 C21.2065625 22.9690625 21.2065625 22.9690625 22.4375 22.9375 C25 23 25 23 26 24 C26.04080783 25.99958364 26.04254356 28.00045254 26 30 C27.2065625 29.9690625 27.2065625 29.9690625 28.4375 29.9375 C31 30 31 30 32 31 C32 32.65 32 34.3 32 36 C36.29 36 40.58 36 45 36 C45 37.98 45 39.96 45 42 C46.65 42 48.3 42 50 42 C50 42.33 50 42.66 50 43 C48.02 43 46.04 43 44 43 C44 41.02 44 39.04 44 37 C40.04 37 36.08 37 32 37 C32 40.96 32 44.92 32 49 C33.65 49 35.3 49 37 49 C39.83823106 51.83823106 38 56.98613514 38 61 C29.75 61 21.5 61 13 61 C13 59.02 13 57.04 13 55 C11.35 54.67 9.7 54.34 8 54 C8 50.04 8 46.08 8 42 C5.03 42.495 5.03 42.495 2 43 C1.67 48.94 1.34 54.88 1 61 C-3.29 61 -7.58 61 -12 61 C-11.67 53.08 -11.34 45.16 -11 37 C-9.02 37 -7.04 37 -5 37 C-5 34.69 -5 32.38 -5 30 C-2.69 30 -0.38 30 2 30 C2 28.02 2 26.04 2 24 C3.32 23.67 4.64 23.34 6 23 C6 17.39 6 11.78 6 6 C4.35 6 2.7 6 1 6 C0 5 0 5 -0.0625 2.4375 C-0.041875 1.633125 -0.02125 0.82875 0 0 Z " fill="#B1B0AD" transform="translate(144,63)"/>
<path d="M0 0 C1.65 0 3.3 0 5 0 C3.68 0.33 2.36 0.66 1 1 C1 4.3 1 7.6 1 11 C6.445 11.495 6.445 11.495 12 12 C12 13.98 12 15.96 12 18 C15.96 18 19.92 18 24 18 C24.92844389 22.33273814 24.92844389 25.66726186 24 30 C20.04 30 16.08 30 12 30 C12 34.29 12 38.58 12 43 C8.04 43 4.08 43 0 43 C0 46.63 0 50.26 0 54 C1.98 54 3.96 54 6 54 C6 56.31 6 58.62 6 61 C3.69 61 1.38 61 -1 61 C-1 62.98 -1 64.96 -1 67 C-4.63 67 -8.26 67 -12 67 C-11.979375 67.969375 -11.95875 68.93875 -11.9375 69.9375 C-12 73 -12 73 -13 74 C-14.65 74 -16.3 74 -18 74 C-18 79.94 -18 85.88 -18 92 C-18.33 92 -18.66 92 -19 92 C-19 85.4 -19 78.8 -19 72 C-17.35 72 -15.7 72 -14 72 C-13.67 66.39 -13.34 60.78 -13 55 C-14.65 55 -16.3 55 -18 55 C-18 49.06 -18 43.12 -18 37 C-16.02 37 -14.04 37 -12 37 C-12.01160156 35.71222656 -12.02320313 34.42445312 -12.03515625 33.09765625 C-12.0445327 31.41927228 -12.05363305 29.74088674 -12.0625 28.0625 C-12.07087891 27.21236328 -12.07925781 26.36222656 -12.08789062 25.48632812 C-12.09111328 24.67744141 -12.09433594 23.86855469 -12.09765625 23.03515625 C-12.10289307 22.2862915 -12.10812988 21.53742676 -12.11352539 20.76586914 C-12 19 -12 19 -11 18 C-9.31391034 17.92794489 -7.62499341 17.91613932 -5.9375 17.9375 C-5.01839844 17.94652344 -4.09929688 17.95554687 -3.15234375 17.96484375 C-2.44207031 17.97644531 -1.73179688 17.98804687 -1 18 C-1.01160156 16.86820313 -1.02320312 15.73640625 -1.03515625 14.5703125 C-1.04453454 13.08854331 -1.0536347 11.60677235 -1.0625 10.125 C-1.07087891 9.37863281 -1.07925781 8.63226563 -1.08789062 7.86328125 C-1.11328125 2.2265625 -1.11328125 2.2265625 0 0 Z " fill="#B9B9BA" transform="translate(53,69)"/>
<path d="M0 0 C2.31 0 4.62 0 7 0 C7 1.98 7 3.96 7 6 C5.02 6 3.04 6 1 6 C1 7.98 1 9.96 1 12 C4.96 12 8.92 12 13 12 C13 13.65 13 15.3 13 17 C16.96 17.33 20.92 17.66 25 18 C25 20.31 25 22.62 25 25 C21.04 25 17.08 25 13 25 C13 32.59 13 40.18 13 48 C14.65 48 16.3 48 18 48 C18 48.33 18 48.66 18 49 C10.08 49 2.16 49 -6 49 C-6 43.06 -6 37.12 -6 31 C-11.54973121 31.03957481 -11.54973121 31.03957481 -17.09936523 31.09008789 C-19.06645974 31.09723091 -21.03353621 31.05031893 -23 31 C-24 30 -24 30 -24.09765625 26.18359375 C-24.09098089 24.60153318 -24.07901875 23.01948841 -24.0625 21.4375 C-24.05798828 20.63119141 -24.05347656 19.82488281 -24.04882812 18.99414062 C-24.03700518 16.99606244 -24.01906914 14.99802217 -24 13 C-20.00204108 12.04380267 -16.29196078 11.8960408 -12.1875 11.9375 C-11.02605469 11.94652344 -9.86460938 11.95554687 -8.66796875 11.96484375 C-7.78753906 11.97644531 -6.90710938 11.98804688 -6 12 C-6 9.69 -6 7.38 -6 5 C-4.35 4.67 -2.7 4.34 -1 4 C-0.67 2.68 -0.34 1.36 0 0 Z " fill="#D3BA4A" transform="translate(114,7)"/>
<path d="M0 0 C3.63 0 7.26 0 11 0 C11.33 5.94 11.66 11.88 12 18 C13.98 18.33 15.96 18.66 18 19 C18 24.94 18 30.88 18 37 C16.02 37 14.04 37 12 37 C12.01160156 38.28777344 12.02320312 39.57554687 12.03515625 40.90234375 C12.0445327 42.58072772 12.05363305 44.25911326 12.0625 45.9375 C12.07087891 46.78763672 12.07925781 47.63777344 12.08789062 48.51367188 C12.09272461 49.72700195 12.09272461 49.72700195 12.09765625 50.96484375 C12.10551147 52.08814087 12.10551147 52.08814087 12.11352539 53.23413086 C12 55 12 55 11 56 C9.65732587 56.08631874 8.31025678 56.10706473 6.96484375 56.09765625 C6.15595703 56.09443359 5.34707031 56.09121094 4.51367188 56.08789062 C3.66353516 56.07951172 2.81339844 56.07113281 1.9375 56.0625 C1.08349609 56.05798828 0.22949219 56.05347656 -0.65039062 56.04882812 C-2.76695663 56.03700373 -4.88348685 56.01906769 -7 56 C-7 51.71 -7 47.42 -7 43 C-8.98 43 -10.96 43 -13 43 C-13 37.06 -13 31.12 -13 25 C-11.02 25 -9.04 25 -7 25 C-7 22.69 -7 20.38 -7 18 C-4.69 18 -2.38 18 0 18 C0 12.06 0 6.12 0 0 Z " fill="#1E1819" transform="translate(115,136)"/>
<path d="M0 0 C1.65 0 3.3 0 5 0 C5 7.92 5 15.84 5 24 C6.98 24 8.96 24 11 24 C11 27.96 11 31.92 11 36 C13.31 36 15.62 36 18 36 C18 39.96 18 43.92 18 48 C15.69 48 13.38 48 11 48 C11 49.98 11 51.96 11 54 C9.35 54 7.7 54 6 54 C6 52.02 6 50.04 6 48 C3.69 48 1.38 48 -1 48 C-1 46.02 -1 44.04 -1 42 C-2.98 42 -4.96 42 -7 42 C-7 40.02 -7 38.04 -7 36 C-10.96 36 -14.92 36 -19 36 C-19 33.69 -19 31.38 -19 29 C-20.98 29 -22.96 29 -25 29 C-25 25.37 -25 21.74 -25 18 C-21.04 18 -17.08 18 -13 18 C-13 13.71 -13 9.42 -13 5 C-8.71 5 -4.42 5 0 5 C0 3.35 0 1.7 0 0 Z " fill="#2B2221" transform="translate(78,94)"/>
<path d="M0 0 C1.98 0 3.96 0 6 0 C6 3.96 6 7.92 6 12 C7.65 12 9.3 12 11 12 C12 13 12 13 12 18 C17.94 18.33 23.88 18.66 30 19 C30 20.98 30 22.96 30 25 C22.08 25 14.16 25 6 25 C5.67 31.27 5.34 37.54 5 44 C11.27 44 17.54 44 24 44 C24 44.66 24 45.32 24 46 C24.83144531 45.91621094 25.66289062 45.83242187 26.51953125 45.74609375 C27.60621094 45.64425781 28.69289062 45.54242188 29.8125 45.4375 C30.89144531 45.33308594 31.97039062 45.22867188 33.08203125 45.12109375 C36 45 36 45 39 46 C39 45.34 39 44.68 39 44 C41.95664519 42.5216774 44.74229737 42.93967217 48 43 C48 44.98 48 46.96 48 49 C45.69 49 43.38 49 41 49 C41 50.65 41 52.3 41 54 C29.45 54 17.9 54 6 54 C5.67 52.68 5.34 51.36 5 50 C3.02 50 1.04 50 -1 50 C-1 43.73 -1 37.46 -1 31 C-2.98 31 -4.96 31 -7 31 C-7 27.04 -7 23.08 -7 19 C-5.02 19 -3.04 19 -1 19 C-1.01160156 17.71222656 -1.02320313 16.42445312 -1.03515625 15.09765625 C-1.0445327 13.41927228 -1.05363305 11.74088674 -1.0625 10.0625 C-1.07087891 9.21236328 -1.07925781 8.36222656 -1.08789062 7.48632812 C-1.09111328 6.67744141 -1.09433594 5.86855469 -1.09765625 5.03515625 C-1.10289307 4.2862915 -1.10812988 3.53742676 -1.11352539 2.76586914 C-1 1 -1 1 0 0 Z " fill="#B6A139" transform="translate(146,105)"/>
<path d="M0 0 C1.32 0 2.64 0 4 0 C4.33 1.32 4.66 2.64 5 4 C8.96 4.33 12.92 4.66 17 5 C17 6.98 17 8.96 17 11 C18.98 11 20.96 11 23 11 C23.33 12.65 23.66 14.3 24 16 C25.98 16.33 27.96 16.66 30 17 C30 24.92 30 32.84 30 41 C23.73 41 17.46 41 11 41 C11 39.02 11 37.04 11 35 C10.21753906 35.01160156 9.43507813 35.02320313 8.62890625 35.03515625 C7.61699219 35.04417969 6.60507812 35.05320313 5.5625 35.0625 C4.55316406 35.07410156 3.54382812 35.08570313 2.50390625 35.09765625 C0 35 0 35 -1 34 C-0.91036938 32.30858344 -0.75422324 30.62040398 -0.5625 28.9375 C-0.46066406 28.01839844 -0.35882813 27.09929687 -0.25390625 26.15234375 C-0.17011719 25.44207031 -0.08632813 24.73179688 0 24 C1.32 24 2.64 24 4 24 C4 21.36 4 18.72 4 16 C2.68 15.67 1.36 15.34 0 15 C0 10.05 0 5.1 0 0 Z " fill="#F7E381" transform="translate(54,46)"/>
<path d="M0 0 C1.1858519 0.00212242 1.1858519 0.00212242 2.3956604 0.00428772 C4.90183416 0.00985121 7.40791608 0.02239681 9.9140625 0.03515625 C11.62109245 0.04017597 13.32812382 0.04473805 15.03515625 0.04882812 C19.20315998 0.05980866 23.37109571 0.07704786 27.5390625 0.09765625 C27.5390625 0.75765625 27.5390625 1.41765625 27.5390625 2.09765625 C29.5190625 2.09765625 31.4990625 2.09765625 33.5390625 2.09765625 C33.5390625 3.74765625 33.5390625 5.39765625 33.5390625 7.09765625 C35.8490625 7.09765625 38.1590625 7.09765625 40.5390625 7.09765625 C40.5390625 11.05765625 40.5390625 15.01765625 40.5390625 19.09765625 C32.04296875 19.1953125 32.04296875 19.1953125 29.5390625 19.09765625 C28.5390625 18.09765625 28.5390625 18.09765625 28.4765625 15.53515625 C28.4971875 14.73078125 28.5178125 13.92640625 28.5390625 13.09765625 C26.5590625 13.09765625 24.5790625 13.09765625 22.5390625 13.09765625 C22.5390625 11.11765625 22.5390625 9.13765625 22.5390625 7.09765625 C18.2490625 7.09765625 13.9590625 7.09765625 9.5390625 7.09765625 C9.2090625 8.74765625 8.8790625 10.39765625 8.5390625 12.09765625 C6.8890625 12.09765625 5.2390625 12.09765625 3.5390625 12.09765625 C3.5390625 14.40765625 3.5390625 16.71765625 3.5390625 19.09765625 C-0.4209375 19.09765625 -4.3809375 19.09765625 -8.4609375 19.09765625 C-8.7909375 17.44765625 -9.1209375 15.79765625 -9.4609375 14.09765625 C-10.4509375 15.58265625 -10.4509375 15.58265625 -11.4609375 17.09765625 C-12.7809375 17.09765625 -14.1009375 17.09765625 -15.4609375 17.09765625 C-15.4609375 16.43765625 -15.4609375 15.77765625 -15.4609375 15.09765625 C-16.4509375 15.09765625 -17.4409375 15.09765625 -18.4609375 15.09765625 C-18.4609375 22.68765625 -18.4609375 30.27765625 -18.4609375 38.09765625 C-18.7909375 38.09765625 -19.1209375 38.09765625 -19.4609375 38.09765625 C-19.4609375 28.19765625 -19.4609375 18.29765625 -19.4609375 8.09765625 C-18.1409375 7.76765625 -16.8209375 7.43765625 -15.4609375 7.09765625 C-15.1309375 5.11765625 -14.8009375 3.13765625 -14.4609375 1.09765625 C-9.61760845 0.12966033 -4.91955734 -0.03356461 0 0 Z " fill="#A7A7AE" transform="translate(104.4609375,-0.09765625)"/>
<path d="M0 0 C1.98 0 3.96 0 6 0 C6 1.65 6 3.3 6 5 C7.65 5 9.3 5 11 5 C11 7.64 11 10.28 11 13 C19.25 13 27.5 13 36 13 C36 16.96 36 20.92 36 25 C6.96 25 -22.08 25 -52 25 C-52 24.67 -52 24.34 -52 24 C-45.4 24 -38.8 24 -32 24 C-32 20.04 -32 16.08 -32 12 C-31.67 12 -31.34 12 -31 12 C-31 14.31 -31 16.62 -31 19 C-20.77 19 -10.54 19 0 19 C0 12.73 0 6.46 0 0 Z " fill="#B8B8B9" transform="translate(72,167)"/>
<path d="M0 0 C1.98 0 3.96 0 6 0 C6 1.98 6 3.96 6 6 C7.98 6 9.96 6 12 6 C12.33 7.65 12.66 9.3 13 11 C16.3 11.33 19.6 11.66 23 12 C23.85916096 16.44147569 24.11697565 20.62769824 24.09765625 25.1484375 C24.0962413 25.80582916 24.09482635 26.46322083 24.09336853 27.14053345 C24.08781762 29.21873731 24.07527465 31.29682927 24.0625 33.375 C24.05747864 34.79296718 24.05291685 36.21093607 24.04882812 37.62890625 C24.03786437 41.08597322 24.02063421 44.54297567 24 48 C21.93831015 48.19620767 19.87559002 48.38160753 17.8125 48.5625 C16.08966797 48.71912109 16.08966797 48.71912109 14.33203125 48.87890625 C11 49 11 49 6 48 C6 40.41 6 32.82 6 25 C9.96 25 13.92 25 18 25 C18 22.69 18 20.38 18 18 C13.71 18 9.42 18 5 18 C5.33 16.02 5.66 14.04 6 12 C2.04 12 -1.92 12 -6 12 C-6 10.02 -6 8.04 -6 6 C-4.02 6 -2.04 6 0 6 C0 4.02 0 2.04 0 0 Z " fill="#EDD461" transform="translate(121,7)"/>
<path d="M0 0 C1.98 0 3.96 0 6 0 C6 1.98 6 3.96 6 6 C7.98 6 9.96 6 12 6 C12 7.98 12 9.96 12 12 C14.31 12 16.62 12 19 12 C19 13.98 19 15.96 19 18 C20.2065625 17.9690625 20.2065625 17.9690625 21.4375 17.9375 C24 18 24 18 25 19 C25.04063832 20.66617115 25.042721 22.33388095 25 24 C26.2065625 23.9690625 26.2065625 23.9690625 27.4375 23.9375 C30 24 30 24 31 25 C31.04080783 26.99958364 31.04254356 29.00045254 31 31 C32.98 31 34.96 31 37 31 C37.495 33.475 37.495 33.475 38 36 C41.3 36.33 44.6 36.66 48 37 C48 35.02 48 33.04 48 31 C46.35 31 44.7 31 43 31 C43 29.02 43 27.04 43 25 C44.98 25 46.96 25 49 25 C49 30.94 49 36.88 49 43 C50.98 43 52.96 43 55 43 C55 43.33 55 43.66 55 44 C46.75 44 38.5 44 30 44 C30 41.36 30 38.72 30 36 C28.35 36 26.7 36 25 36 C25 34.35 25 32.7 25 31 C23.02 31 21.04 31 19 31 C19 37.27 19 43.54 19 50 C8.77 50 -1.46 50 -12 50 C-10.515 49.505 -10.515 49.505 -9 49 C-9 48.34 -9 47.68 -9 47 C-9.66 46.67 -10.32 46.34 -11 46 C-7.125 46.875 -7.125 46.875 -6 48 C-4.22130274 48.15764405 -2.43681524 48.25100677 -0.65234375 48.31640625 C0.80570679 48.37356812 0.80570679 48.37356812 2.29321289 48.43188477 C3.53707764 48.47498779 4.78094238 48.51809082 6.0625 48.5625 C10.001875 48.706875 13.94125 48.85125 18 49 C18 41.08 18 33.16 18 25 C16.02 25 14.04 25 12 25 C12 22.69 12 20.38 12 18 C10.02 18 8.04 18 6 18 C5.505 15.525 5.505 15.525 5 13 C3.35 12.67 1.7 12.34 0 12 C0 8.04 0 4.08 0 0 Z " fill="#9B9B9B" transform="translate(53,136)"/>
<path d="M0 0 C3.96 0 7.92 0 12 0 C12 1.98 12 3.96 12 6 C13.98 6 15.96 6 18 6 C18 7.98 18 9.96 18 12 C20.31 12 22.62 12 25 12 C25 14.31 25 16.62 25 19 C26.65 19 28.3 19 30 19 C30.33 20.65 30.66 22.3 31 24 C32.65 24.33 34.3 24.66 36 25 C36 28.96 36 32.92 36 37 C37.98 37 39.96 37 42 37 C42 38.98 42 40.96 42 43 C40.35425434 43.02688151 38.70838587 43.04634123 37.0625 43.0625 C35.68771484 43.07990234 35.68771484 43.07990234 34.28515625 43.09765625 C32 43 32 43 31 42 C30.95936168 40.33382885 30.957279 38.66611905 31 37 C29.02 37 27.04 37 25 37 C24.67 35.02 24.34 33.04 24 31 C22.35 30.67 20.7 30.34 19 30 C18.505 27.525 18.505 27.525 18 25 C16.35 24.67 14.7 24.34 13 24 C13 22.02 13 20.04 13 18 C10.69 18 8.38 18 6 18 C6 16.02 6 14.04 6 12 C4.02 12 2.04 12 0 12 C0 8.04 0 4.08 0 0 Z " fill="#D1D1D1" transform="translate(59,130)"/>
<path d="M0 0 C1.98 0 3.96 0 6 0 C6 3.96 6 7.92 6 12 C4.02 12 2.04 12 0 12 C0 17.94 0 23.88 0 30 C-4.29 30 -8.58 30 -13 30 C-13 31.98 -13 33.96 -13 36 C-14.65 36 -16.3 36 -18 36 C-18.33 30.39 -18.66 24.78 -19 19 C-20.98 18.34 -22.96 17.68 -25 17 C-25 15.68 -25 14.36 -25 13 C-22.69 13 -20.38 13 -18 13 C-18 10.69 -18 8.38 -18 6 C-12.06 6 -6.12 6 0 6 C0 4.02 0 2.04 0 0 Z " fill="#D2BA51" transform="translate(170,50)"/>
<path d="M0 0 C1.4540625 0.0309375 1.4540625 0.0309375 2.9375 0.0625 C2.9375 0.3925 2.9375 0.7225 2.9375 1.0625 C1.2875 1.0625 -0.3625 1.0625 -2.0625 1.0625 C-2.0625 2.7125 -2.0625 4.3625 -2.0625 6.0625 C-1.258125 6.041875 -0.45375 6.02125 0.375 6 C2.9375 6.0625 2.9375 6.0625 3.9375 7.0625 C3.97830783 9.06208364 3.98004356 11.06295254 3.9375 13.0625 C4.741875 13.041875 5.54625 13.02125 6.375 13 C8.9375 13.0625 8.9375 13.0625 9.9375 14.0625 C9.9375 15.7125 9.9375 17.3625 9.9375 19.0625 C14.2275 19.0625 18.5175 19.0625 22.9375 19.0625 C22.9375 21.0425 22.9375 23.0225 22.9375 25.0625 C24.5875 25.0625 26.2375 25.0625 27.9375 25.0625 C27.9375 25.3925 27.9375 25.7225 27.9375 26.0625 C25.9575 26.0625 23.9775 26.0625 21.9375 26.0625 C21.9375 24.0825 21.9375 22.1025 21.9375 20.0625 C17.9775 20.0625 14.0175 20.0625 9.9375 20.0625 C9.9375 24.0225 9.9375 27.9825 9.9375 32.0625 C11.5875 32.0625 13.2375 32.0625 14.9375 32.0625 C15.9375 33.0625 15.9375 33.0625 16.03515625 35.56640625 C16.00260417 38.3984375 15.97005208 41.23046875 15.9375 44.0625 C12.3075 43.7325 8.6775 43.4025 4.9375 43.0625 C4.9375 41.0825 4.9375 39.1025 4.9375 37.0625 C0.6475 37.0625 -3.6425 37.0625 -8.0625 37.0625 C-8.0625 31.4525 -8.0625 25.8425 -8.0625 20.0625 C-6.4125 19.7325 -4.7625 19.4025 -3.0625 19.0625 C-2.7325 17.4125 -2.4025 15.7625 -2.0625 14.0625 C-1.0725 13.7325 -0.0825 13.4025 0.9375 13.0625 C1.2675 11.4125 1.5975 9.7625 1.9375 8.0625 C-0.3725 8.0625 -2.6825 8.0625 -5.0625 8.0625 C-4.046875 0.08258929 -4.046875 0.08258929 0 0 Z " fill="#B8B7B7" transform="translate(166.0625,79.9375)"/>
<path d="M0 0 C11.88 0 23.76 0 36 0 C36 6.27 36 12.54 36 19 C34.02 19 32.04 19 30 19 C30 21.31 30 23.62 30 26 C28.02 26 26.04 26 24 26 C24 33.59 24 41.18 24 49 C23.67 49 23.34 49 23 49 C23 47.02 23 45.04 23 43 C21.02 43 19.04 43 17 43 C17 37.39 17 31.78 17 26 C15.35 26 13.7 26 12 26 C12 25.67 12 25.34 12 25 C15.63 25 19.26 25 23 25 C22.67 22.69 22.34 20.38 22 18 C24.64 18 27.28 18 30 18 C30 14.37 30 10.74 30 7 C28.25332031 7.01160156 26.50664062 7.02320312 24.70703125 7.03515625 C22.40885524 7.04453656 20.11067807 7.0536365 17.8125 7.0625 C16.08676758 7.07506836 16.08676758 7.07506836 14.32617188 7.08789062 C13.21435547 7.09111328 12.10253906 7.09433594 10.95703125 7.09765625 C9.93585205 7.10289307 8.91467285 7.10812988 7.86254883 7.11352539 C5.13098384 7.00519467 2.65830626 6.61706868 0 6 C0 4.02 0 2.04 0 0 Z " fill="#E1D17B" transform="translate(109,74)"/>
<path d="M0 0 C1.65 0 3.3 0 5 0 C5 1.98 5 3.96 5 6 C6.98 6 8.96 6 11 6 C11 7.98 11 9.96 11 12 C12.98 12 14.96 12 17 12 C17 13.98 17 15.96 17 18 C19.31 18 21.62 18 24 18 C24 19.98 24 21.96 24 24 C21.69 24 19.38 24 17 24 C17 25.98 17 27.96 17 30 C13.37 30 9.74 30 6 30 C6.020625 30.969375 6.04125 31.93875 6.0625 32.9375 C6 36 6 36 5 37 C3.35 37 1.7 37 0 37 C0 42.94 0 48.88 0 55 C-0.33 55 -0.66 55 -1 55 C-1 48.4 -1 41.8 -1 35 C0.65 35 2.3 35 4 35 C4.33 29.39 4.66 23.78 5 18 C3.35 18 1.7 18 0 18 C0 12.06 0 6.12 0 0 Z " fill="#BBBBBE" transform="translate(35,106)"/>
<path d="M0 0 C0.33 0 0.66 0 1 0 C1 7.92 1 15.84 1 24 C-5.27 24 -11.54 24 -18 24 C-18 22.02 -18 20.04 -18 18 C-18.78246094 18.01160156 -19.56492187 18.02320312 -20.37109375 18.03515625 C-21.38300781 18.04417969 -22.39492188 18.05320312 -23.4375 18.0625 C-24.44683594 18.07410156 -25.45617188 18.08570312 -26.49609375 18.09765625 C-29 18 -29 18 -30 17 C-29.91036938 15.30858344 -29.75422324 13.62040398 -29.5625 11.9375 C-29.46066406 11.01839844 -29.35882813 10.09929687 -29.25390625 9.15234375 C-29.17011719 8.44207031 -29.08632813 7.73179688 -29 7 C-27.68 7 -26.36 7 -25 7 C-25 6.34 -25 5.68 -25 5 C-18.73 5.33 -12.46 5.66 -6 6 C-6 9.3 -6 12.6 -6 16 C-4.02 16.33 -2.04 16.66 0 17 C0 11.39 0 5.78 0 0 Z " fill="#DCC151" transform="translate(83,63)"/>
<path d="M0 0 C1.60294922 0.15275391 1.60294922 0.15275391 3.23828125 0.30859375 C4.45064453 0.43427734 4.45064453 0.43427734 5.6875 0.5625 C6.0175 2.2125 6.3475 3.8625 6.6875 5.5625 C14.6075 5.8925 22.5275 6.2225 30.6875 6.5625 C30.6875 8.5425 30.6875 10.5225 30.6875 12.5625 C14.5175 12.5625 -1.6525 12.5625 -18.3125 12.5625 C-18.3125 10.5825 -18.3125 8.6025 -18.3125 6.5625 C-16.3325 6.2325 -14.3525 5.9025 -12.3125 5.5625 C-11.9825 3.9125 -11.6525 2.2625 -11.3125 0.5625 C-7.36602382 -0.42594951 -4.03857036 -0.39941905 0 0 Z " fill="#B5B4B6" transform="translate(157.3125,179.4375)"/>
<path d="M0 0 C7.92 0 15.84 0 24 0 C24 1.98 24 3.96 24 6 C22.02 6 20.04 6 18 6 C18.01160156 6.85464844 18.02320313 7.70929688 18.03515625 8.58984375 C18.04417969 9.69457031 18.05320313 10.79929688 18.0625 11.9375 C18.07410156 13.03964844 18.08570313 14.14179688 18.09765625 15.27734375 C18 18 18 18 17 19 C15.65732587 19.08631874 14.31025678 19.10706473 12.96484375 19.09765625 C12.15595703 19.09443359 11.34707031 19.09121094 10.51367188 19.08789062 C9.66353516 19.07951172 8.81339844 19.07113281 7.9375 19.0625 C7.08349609 19.05798828 6.22949219 19.05347656 5.34960938 19.04882812 C3.23304337 19.03700373 1.11651315 19.01906769 -1 19 C-1.0272616 16.95840905 -1.04651345 14.91671037 -1.0625 12.875 C-1.07410156 11.73804688 -1.08570313 10.60109375 -1.09765625 9.4296875 C-1 6 -1 6 0 0 Z " fill="#B7B4AD" transform="translate(152,130)"/>
<path d="M0 0 C3.96 0 7.92 0 12 0 C12 1.98 12 3.96 12 6 C13.98 6 15.96 6 18 6 C18 7.65 18 9.3 18 11 C19.98 11 21.96 11 24 11 C24 23.21 24 35.42 24 48 C22.02 48 20.04 48 18 48 C17.67 36.45 17.34 24.9 17 13 C11.72 12.34 6.44 11.68 1 11 C0.67 7.37 0.34 3.74 0 0 Z " fill="#B7A239" transform="translate(176,100)"/>
<path d="M0 0 C8.25 0 16.5 0 25 0 C25 3.63 25 7.26 25 11 C22.36 11 19.72 11 17 11 C17.33 13.31 17.66 15.62 18 18 C14.37 18 10.74 18 7 18 C7 16.02 7 14.04 7 12 C4.69 12 2.38 12 0 12 C0 8.04 0 4.08 0 0 Z " fill="#A1A1A6" transform="translate(114,81)"/>
<path d="M0 0 C12.21 0 24.42 0 37 0 C37 1.98 37 3.96 37 6 C32.71 6 28.42 6 24 6 C24 12.27 24 18.54 24 25 C22.35 25 20.7 25 19 25 C18 24 18 24 17.90234375 20.18359375 C17.90808862 18.60152953 17.92110407 17.01948969 17.9375 15.4375 C17.958125 12.653125 17.97875 9.86875 18 7 C12.06 7 6.12 7 0 7 C0 4.69 0 2.38 0 0 Z " fill="#312D20" transform="translate(102,25)"/>
<path d="M0 0 C7.59 0 15.18 0 23 0 C23 3.63 23 7.26 23 11 C21.35 11 19.7 11 18 11 C18 13.31 18 15.62 18 18 C14.04 18 10.08 18 6 18 C6 19.98 6 21.96 6 24 C5.67 24 5.34 24 5 24 C4.67 20.04 4.34 16.08 4 12 C2.68 11.67 1.36 11.34 0 11 C-1.15299221 6.64425167 -0.80558057 4.83348343 0 0 Z " fill="#BEBEC0" transform="translate(90,143)"/>
<path d="M0 0 C5.94 0 11.88 0 18 0 C18 0.66 18 1.32 18 2 C19.98 2 21.96 2 24 2 C24 3.65 24 5.3 24 7 C26.31 7 28.62 7 31 7 C31 10.96 31 14.92 31 19 C22.50390625 19.09765625 22.50390625 19.09765625 20 19 C19 18 19 18 18.9375 15.4375 C18.958125 14.633125 18.97875 13.82875 19 13 C17.02 13 15.04 13 13 13 C13 11.02 13 9.04 13 7 C9.04 7 5.08 7 1 7 C0 2 0 2 0 0 Z " fill="#C1C1C2" transform="translate(114,0)"/>
<path d="M0 0 C0.79921875 0.00902344 1.5984375 0.01804688 2.421875 0.02734375 C3.02515625 0.03894531 3.6284375 0.05054688 4.25 0.0625 C4.25 1.7125 4.25 3.3625 4.25 5.0625 C15.8 5.0625 27.35 5.0625 39.25 5.0625 C39.25 3.4125 39.25 1.7625 39.25 0.0625 C39.58 0.0625 39.91 0.0625 40.25 0.0625 C40.25 2.0425 40.25 4.0225 40.25 6.0625 C28.37 6.3925 16.49 6.7225 4.25 7.0625 C3.92 11.0225 3.59 14.9825 3.25 19.0625 C0.94 19.0625 -1.37 19.0625 -3.75 19.0625 C-3.75 20.7125 -3.75 22.3625 -3.75 24.0625 C-5.6875 24.625 -5.6875 24.625 -7.75 25.0625 C-8.75 24.0625 -8.75 24.0625 -8.86352539 21.83764648 C-8.85828857 20.87930908 -8.85305176 19.92097168 -8.84765625 18.93359375 C-8.84443359 17.89912109 -8.84121094 16.86464844 -8.83789062 15.79882812 C-8.82951172 14.71021484 -8.82113281 13.62160156 -8.8125 12.5 C-8.80798828 11.40751953 -8.80347656 10.31503906 -8.79882812 9.18945312 C-8.78699826 6.48041505 -8.77051543 3.77148401 -8.75 1.0625 C-5.73096289 0.25760911 -3.13148111 -0.04605119 0 0 Z " fill="#B2B2B2" transform="translate(147.75,153.9375)"/>
<path d="M0 0 C2.31 0 4.62 0 7 0 C7 1.98 7 3.96 7 6 C5.02 6 3.04 6 1 6 C1 9.96 1 13.92 1 18 C2.65 18 4.3 18 6 18 C7 19 7 19 7.0625 21.5625 C7.041875 22.366875 7.02125 23.17125 7 24 C8.98 24 10.96 24 13 24 C13 24.33 13 24.66 13 25 C10.69 25 8.38 25 6 25 C6 24.34 6 23.68 6 23 C4.35 23 2.7 23 1 23 C1 22.34 1 21.68 1 21 C0.34 21.66 -0.32 22.32 -1 23 C-3.475 22.01 -3.475 22.01 -6 21 C-5.67 19.02 -5.34 17.04 -5 15 C-3.68 15 -2.36 15 -1 15 C-1 14.34 -1 13.68 -1 13 C-2.98 13.33 -4.96 13.66 -7 14 C-7.33 16.64 -7.66 19.28 -8 22 C-8.99 22.33 -9.98 22.66 -11 23 C-12.5 21.75 -12.5 21.75 -14 20 C-14 18.68 -14 17.36 -14 16 C-14.66 16 -15.32 16 -16 16 C-16 20.95 -16 25.9 -16 31 C-16.33 31 -16.66 31 -17 31 C-17 25.06 -17 19.12 -17 13 C-15.35 12.67 -13.7 12.34 -12 12 C-11.67 10.02 -11.34 8.04 -11 6 C-7.37 6 -3.74 6 0 6 C0 4.02 0 2.04 0 0 Z " fill="#3A3433" transform="translate(52,130)"/>
<path d="M0 0 C2.31 0 4.62 0 7 0 C7 1.98 7 3.96 7 6 C5.02 6 3.04 6 1 6 C1 7.98 1 9.96 1 12 C4.96 12 8.92 12 13 12 C13 13.65 13 15.3 13 17 C11.11368457 18.88631543 7.85799307 18.24265292 5.33984375 18.31640625 C4.34314415 18.3475779 4.34314415 18.3475779 3.3263092 18.37937927 C1.19681457 18.44493658 -0.93280668 18.50378785 -3.0625 18.5625 C-4.50326847 18.60567939 -5.94402399 18.64929349 -7.38476562 18.69335938 C-10.9230404 18.80062393 -14.46145869 18.90187371 -18 19 C-18.33 16.69 -18.66 14.38 -19 12 C-14.71 12 -10.42 12 -6 12 C-6 9.69 -6 7.38 -6 5 C-4.35 4.67 -2.7 4.34 -1 4 C-0.67 2.68 -0.34 1.36 0 0 Z " fill="#DDC54D" transform="translate(114,7)"/>
<path d="M0 0 C2.625 -0.1875 2.625 -0.1875 5 0 C5 1.98 5 3.96 5 6 C3.35 6 1.7 6 0 6 C0 11.61 0 17.22 0 23 C4.29 23 8.58 23 13 23 C13 24.98 13 26.96 13 29 C14.65 29 16.3 29 18 29 C18 29.33 18 29.66 18 30 C11.73 30 5.46 30 -1 30 C-1 28.02 -1 26.04 -1 24 C-2.65 23.67 -4.3 23.34 -6 23 C-6 19.04 -6 15.08 -6 11 C-8.31 11.33 -10.62 11.66 -13 12 C-12.67 9.69 -12.34 7.38 -12 5 C-10.68 5 -9.36 5 -8 5 C-3.13989263 3.78582646 -3.13989263 3.78582646 0 0 Z " fill="#A3A2A7" transform="translate(158,94)"/>
<path d="M0 0 C1.98 0 3.96 0 6 0 C6 3.96 6 7.92 6 12 C7.65 12 9.3 12 11 12 C12 13 12 13 12.0625 15.5625 C12.041875 16.366875 12.02125 17.17125 12 18 C9.69 18.33 7.38 18.66 5 19 C4.67 20.65 4.34 22.3 4 24 C2.02 24.33 0.04 24.66 -2 25 C-2 26.98 -2 28.96 -2 31 C-3.65 31 -5.3 31 -7 31 C-7 27.04 -7 23.08 -7 19 C-5.02 19 -3.04 19 -1 19 C-1.01160156 17.71222656 -1.02320313 16.42445312 -1.03515625 15.09765625 C-1.0445327 13.41927228 -1.05363305 11.74088674 -1.0625 10.0625 C-1.07087891 9.21236328 -1.07925781 8.36222656 -1.08789062 7.48632812 C-1.09111328 6.67744141 -1.09433594 5.86855469 -1.09765625 5.03515625 C-1.10289307 4.2862915 -1.10812988 3.53742676 -1.11352539 2.76586914 C-1 1 -1 1 0 0 Z " fill="#C8B040" transform="translate(146,105)"/>
<path d="M0 0 C0.33 0 0.66 0 1 0 C1 1.65 1 3.3 1 5 C4.3 5.33 7.6 5.66 11 6 C11 7.65 11 9.3 11 11 C13.31 11 15.62 11 18 11 C18 14.63 18 18.26 18 22 C14.04 22.33 10.08 22.66 6 23 C5.67 21.35 5.34 19.7 5 18 C3.35 17.67 1.7 17.34 0 17 C0 11.39 0 5.78 0 0 Z " fill="#BEBEC1" transform="translate(41,88)"/>
<path d="M0 0 C1.98 0 3.96 0 6 0 C6 0.66 6 1.32 6 2 C6.66 2 7.32 2 8 2 C8 2.99 8 3.98 8 5 C10.97 5 13.94 5 17 5 C17.33 6.65 17.66 8.3 18 10 C19.65 10 21.3 10 23 10 C23 11.98 23 13.96 23 16 C19.04 16 15.08 16 11 16 C11 17.98 11 19.96 11 22 C9.35 22 7.7 22 6 22 C5.67 16.39 5.34 10.78 5 5 C3.35 4.67 1.7 4.34 0 4 C0 2.68 0 1.36 0 0 Z " fill="#C7AF41" transform="translate(146,64)"/>
<path d="M0 0 C1.04212646 0.04713135 2.08425293 0.0942627 3.15795898 0.14282227 C4.28266602 0.19116211 5.40737305 0.23950195 6.56616211 0.28930664 C8.34216797 0.37341797 8.34216797 0.37341797 10.15405273 0.45922852 C11.34192383 0.51143555 12.52979492 0.56364258 13.75366211 0.61743164 C16.69986339 0.74758511 19.64576549 0.88256492 22.59155273 1.02172852 C22.59155273 3.00172852 22.59155273 4.98172852 22.59155273 7.02172852 C14.67155273 7.02172852 6.75155273 7.02172852 -1.40844727 7.02172852 C-1.40844727 9.00172852 -1.40844727 10.98172852 -1.40844727 13.02172852 C-4.04844727 13.02172852 -6.68844727 13.02172852 -9.40844727 13.02172852 C-9.40844727 11.04172852 -9.40844727 9.06172852 -9.40844727 7.02172852 C-10.06844727 6.69172852 -10.72844727 6.36172852 -11.40844727 6.02172852 C-8.76844727 6.02172852 -6.12844727 6.02172852 -3.40844727 6.02172852 C-3.42907227 5.21735352 -3.44969727 4.41297852 -3.47094727 3.58422852 C-3.38902821 0.22554735 -3.35445735 0.03026322 0 0 Z " fill="#4E483E" transform="translate(153.408447265625,122.978271484375)"/>
<path d="M0 0 C11.55 0 23.1 0 35 0 C35 1.98 35 3.96 35 6 C23.45 6 11.9 6 0 6 C0 4.02 0 2.04 0 0 Z " fill="#8A898F" transform="translate(97,56)"/>
<path d="M0 0 C1.98 0 3.96 0 6 0 C5.67 4.29 5.34 8.58 5 13 C4.01 12.67 3.02 12.34 2 12 C1.67 11.01 1.34 10.02 1 9 C0.67 16.26 0.34 23.52 0 31 C-2.31 31 -4.62 31 -7 31 C-6.67 23.08 -6.34 15.16 -6 7 C-4.02 7 -2.04 7 0 7 C0 4.69 0 2.38 0 0 Z " fill="#BCBBBA" transform="translate(139,93)"/>
<path d="M0 0 C3.96 0 7.92 0 12 0 C12 5.61 12 11.22 12 17 C8.04 17 4.08 17 0 17 C0 11.39 0 5.78 0 0 Z " fill="#C1C0C3" transform="translate(133,38)"/>
<path d="M0 0 C0.33 0 0.66 0 1 0 C1 1.65 1 3.3 1 5 C2.98 5 4.96 5 7 5 C7 8.3 7 11.6 7 15 C7.99 15 8.98 15 10 15 C10.33 14.34 10.66 13.68 11 13 C13.57829164 16.79160536 12.72604511 19.64372933 12 24 C12.33 24.66 12.66 25.32 13 26 C12.34 26 11.68 26 11 26 C11 26.66 11 27.32 11 28 C11.66 28.33 12.32 28.66 13 29 C12.34 29 11.68 29 11 29 C11 29.66 11 30.32 11 31 C7.37 31 3.74 31 0 31 C0 26.71 0 22.42 0 18 C1.98 18 3.96 18 6 18 C5.67 14.37 5.34 10.74 5 7 C3.35 6.67 1.7 6.34 0 6 C0 4.02 0 2.04 0 0 Z " fill="#C3AD47" transform="translate(176,106)"/>
<path d="M0 0 C1.98 0 3.96 0 6 0 C6 4.29 6 8.58 6 13 C2.04 13 -1.92 13 -6 13 C-6 16.63 -6 20.26 -6 24 C-4.02 24 -2.04 24 0 24 C0 24.33 0 24.66 0 25 C-2.31 25 -4.62 25 -7 25 C-7 23.02 -7 21.04 -7 19 C-8.98 19 -10.96 19 -13 19 C-13 17.02 -13 15.04 -13 13 C-14.98 13 -16.96 13 -19 13 C-19.04254356 11.00045254 -19.04080783 8.99958364 -19 7 C-18 6 -18 6 -15.5 5.875 C-13 6 -13 6 -12 7 C-11.95936168 8.66617115 -11.957279 10.33388095 -12 12 C-11.319375 11.835 -10.63875 11.67 -9.9375 11.5 C-6.5835178 10.92910941 -3.39610195 10.93340977 0 11 C0 7.37 0 3.74 0 0 Z " fill="#ADADB4" transform="translate(59,99)"/>
<path d="M0 0 C0.33 0.66 0.66 1.32 1 2 C2.5778125 1.9690625 2.5778125 1.9690625 4.1875 1.9375 C8 2 8 2 13 3 C13 8.61 13 14.22 13 20 C11.02 19.67 9.04 19.34 7 19 C7 15.7 7 12.4 7 9 C6.10796875 9.01160156 5.2159375 9.02320312 4.296875 9.03515625 C2.54117188 9.04869141 2.54117188 9.04869141 0.75 9.0625 C-0.99023438 9.07990234 -0.99023438 9.07990234 -2.765625 9.09765625 C-5.40977128 9.01782092 -7.49826091 8.78643778 -10 8 C-10 6.02 -10 4.04 -10 2 C-8.68 2 -7.36 2 -6 2 C-6 2.66 -6 3.32 -6 4 C-5.34 4 -4.68 4 -4 4 C-4 4.99 -4 5.98 -4 7 C-2.35 7 -0.7 7 1 7 C0.67 4.69 0.34 2.38 0 0 Z " fill="#F5E27E" transform="translate(70,60)"/>
<path d="M0 0 C1.98 0 3.96 0 6 0 C6 0.33 6 0.66 6 1 C4.35 1 2.7 1 1 1 C1.33 5.62 1.66 10.24 2 15 C2.33 14.67 2.66 14.34 3 14 C4.68608966 13.92794489 6.37500659 13.91613932 8.0625 13.9375 C8.98160156 13.94652344 9.90070312 13.95554688 10.84765625 13.96484375 C11.55792969 13.97644531 12.26820312 13.98804688 13 14 C13.33 14.99 13.66 15.98 14 17 C15.03125 16.896875 16.0625 16.79375 17.125 16.6875 C21.51286491 17.04136007 21.94276365 17.91467771 24.9140625 20.8203125 C29.72494815 23.54107555 36.70460853 22.86064759 42 23 C42 15.74 42 8.48 42 1 C40.35 1 38.7 1 37 1 C37 0.67 37 0.34 37 0 C38.98 0 40.96 0 43 0 C43 7.92 43 15.84 43 24 C39.101875 24.04125 35.20375 24.0825 31.1875 24.125 C29.96184326 24.14320801 28.73618652 24.16141602 27.47338867 24.18017578 C26.5063501 24.1851709 25.53931152 24.19016602 24.54296875 24.1953125 C23.0583313 24.21102295 23.0583313 24.21102295 21.54370117 24.22705078 C19 24 19 24 16 22 C16 22.66 16 23.32 16 24 C15.01 24 14.02 24 13 24 C13 22.02 13 20.04 13 18 C12.39671875 18.01160156 11.7934375 18.02320313 11.171875 18.03515625 C9.97304688 18.04869141 9.97304688 18.04869141 8.75 18.0625 C7.56664062 18.07990234 7.56664062 18.07990234 6.359375 18.09765625 C4 18 4 18 0 17 C0 11.39 0 5.78 0 0 Z " fill="#4D4A4A" transform="translate(28,161)"/>
<path d="M0 0 C1.64630328 0.14042877 3.29204179 0.28749329 4.9375 0.4375 C6.31228516 0.55931641 6.31228516 0.55931641 7.71484375 0.68359375 C10 1 10 1 11 2 C11.08851529 4.59359322 11.11525945 7.16039691 11.09765625 9.75390625 C11.0962413 10.52935287 11.09482635 11.3047995 11.09336853 12.10374451 C11.08775345 14.59003494 11.07519846 17.0762366 11.0625 19.5625 C11.05748694 21.24413933 11.0529237 22.92578006 11.04882812 24.60742188 C11.03777913 28.73831566 11.02050445 32.86914276 11 37 C8.69 37 6.38 37 4 37 C5 35 5 35 8 34 C7.8453125 33.02417969 7.690625 32.04835937 7.53125 31.04296875 C6.81953395 26.06471549 6.62877712 21.07166908 6.39453125 16.05273438 C6.21455604 12.57424806 5.92082845 9.3566434 5 6 C3.35 6 1.7 6 0 6 C0 4.02 0 2.04 0 0 Z " fill="#D4BD51" transform="translate(183,111)"/>
<path d="M0 0 C2.31 0 4.62 0 7 0 C7 2.31 7 4.62 7 7 C5.35 7 3.7 7 2 7 C2.020625 7.804375 2.04125 8.60875 2.0625 9.4375 C2 12 2 12 1 13 C-0.99958364 13.04080783 -3.00045254 13.04254356 -5 13 C-5 14.98 -5 16.96 -5 19 C-6.98 19 -8.96 19 -11 19 C-11.08078641 16.87561661 -11.13909141 14.7503677 -11.1875 12.625 C-11.22230469 11.44164062 -11.25710937 10.25828125 -11.29296875 9.0390625 C-11.19628906 8.03617188 -11.09960938 7.03328125 -11 6 C-10.01 5.34 -9.02 4.68 -8 4 C-8 4.66 -8 5.32 -8 6 C-4.535 5.505 -4.535 5.505 -1 5 C-0.67 3.35 -0.34 1.7 0 0 Z " fill="#9C9DA2" transform="translate(144,173)"/>
<path d="M0 0 C11.55 0 23.1 0 35 0 C35 1.65 35 3.3 35 5 C23.45 5 11.9 5 0 5 C0 3.35 0 1.7 0 0 Z " fill="#7F7A70" transform="translate(152,154)"/>
<path d="M0 0 C6.27 0 12.54 0 19 0 C19 5.94 19 11.88 19 18 C18.34 18 17.68 18 17 18 C17 14.37 17 10.74 17 7 C9.41 7 1.82 7 -6 7 C-6 8.98 -6 10.96 -6 13 C-7.98 13 -9.96 13 -12 13 C-12 12.67 -12 12.34 -12 12 C-10.35 12 -8.7 12 -7 12 C-7 10.02 -7 8.04 -7 6 C-4.69 6 -2.38 6 0 6 C0 4.02 0 2.04 0 0 Z " fill="#87878E" transform="translate(96,136)"/>
<path d="M0 0 C3.96 0 7.92 0 12 0 C12 3.63 12 7.26 12 11 C9.36 11 6.72 11 4 11 C4.33 13.31 4.66 15.62 5 18 C3.35 18 1.7 18 0 18 C0 12.06 0 6.12 0 0 Z " fill="#C0BEC2" transform="translate(127,81)"/>
<path d="M0 0 C1.65 0 3.3 0 5 0 C5 5.61 5 11.22 5 17 C6.98 17 8.96 17 11 17 C11 18.98 11 20.96 11 23 C7.37 23 3.74 23 0 23 C0 15.41 0 7.82 0 0 Z " fill="#DFC24B" transform="translate(121,100)"/>
<path d="M0 0 C1.98 0 3.96 0 6 0 C6 5.94 6 11.88 6 18 C0.06 18 -5.88 18 -12 18 C-12 16.02 -12 14.04 -12 12 C-6.39 12 -0.78 12 5 12 C5 10.02 5 8.04 5 6 C3.35 6 1.7 6 0 6 C0 4.02 0 2.04 0 0 Z " fill="#8C8D96" transform="translate(96,161)"/>
<path d="M0 0 C1.65 0 3.3 0 5 0 C5 7.92 5 15.84 5 24 C3.02 24 1.04 24 -1 24 C-1.02887236 20.18751574 -1.04675492 16.3750593 -1.0625 12.5625 C-1.07087891 11.47388672 -1.07925781 10.38527344 -1.08789062 9.26367188 C-1.09111328 8.22919922 -1.09433594 7.19472656 -1.09765625 6.12890625 C-1.10289307 5.17056885 -1.10812988 4.21223145 -1.11352539 3.22485352 C-1 1 -1 1 0 0 Z " fill="#CCB142" transform="translate(116,99)"/>
<path d="M0 0 C1.32 0 2.64 0 4 0 C4 11.55 4 23.1 4 35 C2.68 35 1.36 35 0 35 C0 23.45 0 11.9 0 0 Z " fill="#787777" transform="translate(195,112)"/>
<path d="M0 0 C0.33 0 0.66 0 1 0 C1 1.65 1 3.3 1 5 C2.98 5 4.96 5 7 5 C7 6.98 7 8.96 7 11 C9.31 11 11.62 11 14 11 C14 12.98 14 14.96 14 17 C15.2065625 16.9690625 15.2065625 16.9690625 16.4375 16.9375 C19 17 19 17 20 18 C20.04063832 19.66617115 20.042721 21.33388095 20 23 C21.2065625 22.9690625 21.2065625 22.9690625 22.4375 22.9375 C25 23 25 23 26 24 C26.04080783 25.99958364 26.04254356 28.00045254 26 30 C25.67 30 25.34 30 25 30 C25 28.35 25 26.7 25 25 C23.72125 24.979375 22.4425 24.95875 21.125 24.9375 C20.40570313 24.92589844 19.68640625 24.91429687 18.9453125 24.90234375 C16.91814596 24.87350758 16.91814596 24.87350758 15 26 C14.67 24.68 14.34 23.36 14 22 C13.34 22 12.68 22 12 22 C12 18.7 12 15.4 12 12 C10.35 12 8.7 12 7 12 C6.67 12.99 6.34 13.98 6 15 C5.01 15.495 5.01 15.495 4 16 C4 15.34 4 14.68 4 14 C3.34 14 2.68 14 2 14 C1.875 9.25 1.875 9.25 3 7 C2.01 6.67 1.02 6.34 0 6 C0 4.02 0 2.04 0 0 Z " fill="#ACADAD" transform="translate(58,137)"/>
<path d="M0 0 C0.33 0 0.66 0 1 0 C1 4.29 1 8.58 1 13 C-2.96 13 -6.92 13 -11 13 C-11 18.94 -11 24.88 -11 31 C-12.98 30.67 -14.96 30.34 -17 30 C-17 24.39 -17 18.78 -17 13 C-12.60405194 10.80202597 -11.00732024 10.89926798 -6.25 11.375 C-5.07953125 11.48585938 -3.9090625 11.59671875 -2.703125 11.7109375 C-1.81109375 11.80632813 -0.9190625 11.90171875 0 12 C0 8.04 0 4.08 0 0 Z " fill="#F4E07E" transform="translate(144,25)"/>
<path d="M0 0 C1.98 0 3.96 0 6 0 C6 3.96 6 7.92 6 12 C4.02 12 2.04 12 0 12 C0 17.94 0 23.88 0 30 C-0.33 30 -0.66 30 -1 30 C-2.0176403 24.98391475 -2.11856434 20.21391694 -2.0625 15.125 C-2.05798828 14.34125 -2.05347656 13.5575 -2.04882812 12.75 C-2.03714093 10.83329986 -2.01920908 8.91663952 -2 7 C-6.95 7 -11.9 7 -17 7 C-17 8.65 -17 10.3 -17 12 C-17.33 12 -17.66 12 -18 12 C-18 10.02 -18 8.04 -18 6 C-12.06 6 -6.12 6 0 6 C0 4.02 0 2.04 0 0 Z " fill="#DED194" transform="translate(170,50)"/>
<path d="M0 0 C1.98 0 3.96 0 6 0 C6 4.29 6 8.58 6 13 C6.99 13.33 7.98 13.66 9 14 C9.33 15.32 9.66 16.64 10 18 C5.05 18.495 5.05 18.495 0 19 C0 12.73 0 6.46 0 0 Z " fill="#BAA444" transform="translate(145,136)"/>
<path d="M0 0 C4.29 0 8.58 0 13 0 C13 1.98 13 3.96 13 6 C11.35 6.33 9.7 6.66 8 7 C7.67 14.59 7.34 22.18 7 30 C12.61 30 18.22 30 24 30 C24 30.33 24 30.66 24 31 C18.06 31 12.12 31 6 31 C5.67 23.08 5.34 15.16 5 7 C2.525 6.01 2.525 6.01 0 5 C0 3.35 0 1.7 0 0 Z " fill="#C7B565" transform="translate(108,93)"/>
<path d="M0 0 C1.98 0 3.96 0 6 0 C6 1.65 6 3.3 6 5 C7.98 5 9.96 5 12 5 C12 17.21 12 29.42 12 42 C10.02 42 8.04 42 6 42 C5.505 24.675 5.505 24.675 5 7 C3.35 6.67 1.7 6.34 0 6 C0 4.02 0 2.04 0 0 Z M7 6 C7 17.55 7 29.1 7 41 C8.32 41 9.64 41 11 41 C11 29.45 11 17.9 11 6 C9.68 6 8.36 6 7 6 Z " fill="#A39D84" transform="translate(188,106)"/>
<path d="M0 0 C6.27 0 12.54 0 19 0 C19 1.98 19 3.96 19 6 C12.73 6 6.46 6 0 6 C0 4.02 0 2.04 0 0 Z " fill="#B7A34C" transform="translate(65,81)"/>
<path d="M0 0 C1.65 0 3.3 0 5 0 C5 3.96 5 7.92 5 12 C4.10796875 11.98839844 3.2159375 11.97679687 2.296875 11.96484375 C1.12640625 11.95582031 -0.0440625 11.94679688 -1.25 11.9375 C-2.41015625 11.92589844 -3.5703125 11.91429687 -4.765625 11.90234375 C-7.40977128 11.98217908 -9.49826091 12.21356222 -12 13 C-12 11.02 -12 9.04 -12 7 C-8.04 7 -4.08 7 0 7 C0 4.69 0 2.38 0 0 Z " fill="#EAD362" transform="translate(139,25)"/>
<path d="M0 0 C2.413125 -0.020625 4.82625 -0.04125 7.3125 -0.0625 C8.06829346 -0.071604 8.82408691 -0.08070801 9.6027832 -0.09008789 C12.6839493 -0.10287966 15.05605196 0.01868399 18 1 C18 2.32 18 3.64 18 5 C10.08 5.495 10.08 5.495 2 6 C2 8.64 2 11.28 2 14 C1.34 15.32 0.68 16.64 0 18 C0 12.06 0 6.12 0 0 Z " fill="#82828A" transform="translate(126,136)"/>
<path d="M0 0 C1.65 0 3.3 0 5 0 C5 1.98 5 3.96 5 6 C-1.625 9 -1.625 9 -5 9 C-5 9.66 -5 10.32 -5 11 C-3.35 11.33 -1.7 11.66 0 12 C0 19.92 0 27.84 0 36 C1.98 36 3.96 36 6 36 C6 40.29 6 44.58 6 49 C5.67 49 5.34 49 5 49 C5 45.04 5 41.08 5 37 C3.02 37 1.04 37 -1 37 C-1 29.08 -1 21.16 -1 13 C-2.65 13 -4.3 13 -6 13 C-6 14.65 -6 16.3 -6 18 C-6.33 18 -6.66 18 -7 18 C-7 14.04 -7 10.08 -7 6 C-4.69 6 -2.38 6 0 6 C0 4.02 0 2.04 0 0 Z " fill="#858485" transform="translate(84,81)"/>
<path d="M0 0 C1.98 0 3.96 0 6 0 C7.04167441 4.09725269 6.94409525 7.61495224 6.5625 11.8125 C6.46066406 12.97394531 6.35882813 14.13539063 6.25390625 15.33203125 C6.17011719 16.21246094 6.08632812 17.09289062 6 18 C3.69 18 1.38 18 -1 18 C-0.505 9.09 -0.505 9.09 0 0 Z " fill="#B6B6B7" transform="translate(127,174)"/>
<path d="M0 0 C1.98 0 3.96 0 6 0 C6 3.96 6 7.92 6 12 C7.65 12 9.3 12 11 12 C12 13 12 13 12.0625 15.5625 C12.041875 16.366875 12.02125 17.17125 12 18 C11.34 18 10.68 18 10 18 C9.67 16.68 9.34 15.36 9 14 C6.03 13.67 3.06 13.34 0 13 C0 14.65 0 16.3 0 18 C-0.33 18 -0.66 18 -1 18 C-1.02684312 15.18743719 -1.04676188 12.37512759 -1.0625 9.5625 C-1.07087891 8.76005859 -1.07925781 7.95761719 -1.08789062 7.13085938 C-1.0965143 5.08704779 -1.0522815 3.04316098 -1 1 C-0.67 0.67 -0.34 0.34 0 0 Z " fill="#B3A252" transform="translate(146,105)"/>
<path d="M0 0 C1.98 0 3.96 0 6 0 C6 5.94 6 11.88 6 18 C4.02 18 2.04 18 0 18 C0 12.06 0 6.12 0 0 Z " fill="#C7B045" transform="translate(108,38)"/>
<path d="M0 0 C4.29 0 8.58 0 13 0 C13 0.33 13 0.66 13 1 C9.04 1 5.08 1 1 1 C1 8.59 1 16.18 1 24 C-2.96 24 -6.92 24 -11 24 C-11.49230769 16.73846154 -11.49230769 16.73846154 -9 13 C-8.34 12.34 -7.68 11.68 -7 11 C-6.67 13.64 -6.34 16.28 -6 19 C-4.02 19.33 -2.04 19.66 0 20 C0 13.4 0 6.8 0 0 Z " fill="#C6AF4B" transform="translate(126,31)"/>
<path d="M0 0 C1.98 0 3.96 0 6 0 C6 5.61 6 11.22 6 17 C4.02 17 2.04 17 0 17 C0 11.39 0 5.78 0 0 Z " fill="#EBD25D" transform="translate(126,100)"/>
<path d="M0 0 C2.625 -0.1875 2.625 -0.1875 5 0 C5 1.65 5 3.3 5 5 C3.02 5 1.04 5 -1 5 C-1 6.98 -1 8.96 -1 11 C-3.52475462 12.26237731 -5.31200466 12.09856404 -8.125 12.0625 C-9.03507813 12.05347656 -9.94515625 12.04445313 -10.8828125 12.03515625 C-11.58148438 12.02355469 -12.28015625 12.01195313 -13 12 C-12.67 9.69 -12.34 7.38 -12 5 C-10.68 5 -9.36 5 -8 5 C-3.13989263 3.78582646 -3.13989263 3.78582646 0 0 Z " fill="#929293" transform="translate(158,94)"/>
<path d="M0 0 C0.33 0 0.66 0 1 0 C1 1.65 1 3.3 1 5 C3.64 5 6.28 5 9 5 C9 5.33 9 5.66 9 6 C7.02 6.33 5.04 6.66 3 7 C2.67 9.64 2.34 12.28 2 15 C1.01 15.33 0.02 15.66 -1 16 C-2.5 14.75 -2.5 14.75 -4 13 C-4 11.68 -4 10.36 -4 9 C-4.66 9 -5.32 9 -6 9 C-6 13.95 -6 18.9 -6 24 C-6.33 24 -6.66 24 -7 24 C-7 18.06 -7 12.12 -7 6 C-4.69 6 -2.38 6 0 6 C0 4.02 0 2.04 0 0 Z " fill="#383231" transform="translate(42,137)"/>
<path d="M0 0 C5.94 0 11.88 0 18 0 C18.33 1.32 18.66 2.64 19 4 C17.48578999 5.51421001 16.07527232 5.21309856 13.96484375 5.31640625 C13.15595703 5.35830078 12.34707031 5.40019531 11.51367188 5.44335938 C10.2384668 5.50233398 10.2384668 5.50233398 8.9375 5.5625 C8.08349609 5.60568359 7.22949219 5.64886719 6.34960938 5.69335938 C4.23327963 5.79976702 2.11666187 5.90041731 0 6 C0 4.02 0 2.04 0 0 Z " fill="#EDD363" transform="translate(96,20)"/>
<path d="M0 0 C11.55 0 23.1 0 35 0 C35 0.33 35 0.66 35 1 C29.0885256 1.77313045 23.8685408 2.14819277 18 1 C18 1.99 18 2.98 18 4 C12.06 4 6.12 4 0 4 C0 2.68 0 1.36 0 0 Z " fill="#0F1113" transform="translate(103,26)"/>
<path d="M0 0 C5.94 0 11.88 0 18 0 C18 1.32 18 2.64 18 4 C18.66 4.33 19.32 4.66 20 5 C13.4 5 6.8 5 0 5 C0 3.35 0 1.7 0 0 Z " fill="#F6E27A" transform="translate(115,75)"/>
<path d="M0 0 C0.33 0.66 0.66 1.32 1 2 C2.98 2 4.96 2 7 2 C7 4.31 7 6.62 7 9 C4.91673869 9.02709444 2.83337559 9.04643873 0.75 9.0625 C-0.99023438 9.07990234 -0.99023438 9.07990234 -2.765625 9.09765625 C-5.40977128 9.01782092 -7.49826091 8.78643778 -10 8 C-10 6.02 -10 4.04 -10 2 C-8.68 2 -7.36 2 -6 2 C-6 2.66 -6 3.32 -6 4 C-5.34 4 -4.68 4 -4 4 C-4 4.99 -4 5.98 -4 7 C-2.35 7 -0.7 7 1 7 C0.67 4.69 0.34 2.38 0 0 Z " fill="#EED666" transform="translate(70,60)"/>
<path d="M0 0 C3.63 0 7.26 0 11 0 C11 1.65 11 3.3 11 5 C9.35 5 7.7 5 6 5 C6.020625 5.804375 6.04125 6.60875 6.0625 7.4375 C6 10 6 10 5 11 C3.35 11 1.7 11 0 11 C0 7.37 0 3.74 0 0 Z " fill="#B8B9B9" transform="translate(133,143)"/>
<path d="M0 0 C2.31 0 4.62 0 7 0 C7 1.98 7 3.96 7 6 C5.02 6.33 3.04 6.66 1 7 C0.67 8.65 0.34 10.3 0 12 C-1.98 12 -3.96 12 -6 12 C-6 9.69 -6 7.38 -6 5 C-4.35 4.67 -2.7 4.34 -1 4 C-0.67 2.68 -0.34 1.36 0 0 Z " fill="#BEB06F" transform="translate(114,7)"/>
<path d="M0 0 C1.65 0 3.3 0 5 0 C3.68 0.33 2.36 0.66 1 1 C1 5.95 1 10.9 1 16 C2.65 16 4.3 16 6 16 C6.02888146 19.31248187 6.04675799 22.62493167 6.0625 25.9375 C6.07087891 26.88302734 6.07925781 27.82855469 6.08789062 28.80273438 C6.09111328 29.70185547 6.09433594 30.60097656 6.09765625 31.52734375 C6.10289307 32.35999756 6.10812988 33.19265137 6.11352539 34.05053711 C6 36 6 36 5 37 C3.35 37 1.7 37 0 37 C0 42.94 0 48.88 0 55 C-0.33 55 -0.66 55 -1 55 C-1 48.4 -1 41.8 -1 35 C0.65 35 2.3 35 4 35 C4.33 29.39 4.66 23.78 5 18 C3.35 18 1.7 18 0 18 C0 12.06 0 6.12 0 0 Z " fill="#C8C8C9" transform="translate(35,106)"/>
<path d="M0 0 C0.33 0 0.66 0 1 0 C1.33 5.61 1.66 11.22 2 17 C3.65 17.33 5.3 17.66 7 18 C7.061875 18.78375 7.12375 19.5675 7.1875 20.375 C7.455625 21.24125 7.72375 22.1075 8 23 C10.475 23.99 10.475 23.99 13 25 C13 32.92 13 40.84 13 49 C12.67 49 12.34 49 12 49 C11.67 41.74 11.34 34.48 11 27 C9.68 26.67 8.36 26.34 7 26 C5.25 24.5625 5.25 24.5625 4 23 C4 22.34 4 21.68 4 21 C3.01 21 2.02 21 1 21 C-0.17426264 18.65147472 -0.11508173 17.26225935 -0.09765625 14.6484375 C-0.09443359 13.79765625 -0.09121094 12.946875 -0.08789062 12.0703125 C-0.07951172 11.18085937 -0.07113281 10.29140625 -0.0625 9.375 C-0.05798828 8.4778125 -0.05347656 7.580625 -0.04882812 6.65625 C-0.03702591 4.43743352 -0.02056155 2.21874982 0 0 Z " fill="#BEB9AC" transform="translate(101,75)"/>
<path d="M0 0 C0.33 0 0.66 0 1 0 C1 1.65 1 3.3 1 5 C2.65 5 4.3 5 6 5 C6 9.29 6 13.58 6 18 C4.02 18 2.04 18 0 18 C0 12.06 0 6.12 0 0 Z " fill="#DEC44F" transform="translate(108,75)"/>
<path d="M0 0 C0 1.98 0 3.96 0 6 C-3.34252724 6.07427838 -5.8035914 6.06546953 -9 5 C-10.62567079 4.85284801 -12.25586857 4.75278133 -13.88671875 4.68359375 C-14.82451172 4.64169922 -15.76230469 4.59980469 -16.72851562 4.55664062 C-17.70498047 4.51732422 -18.68144531 4.47800781 -19.6875 4.4375 C-20.67556641 4.39431641 -21.66363281 4.35113281 -22.68164062 4.30664062 C-25.12095546 4.20058346 -27.56037113 4.09852286 -30 4 C-29.67 3.01 -29.34 2.02 -29 1 C-27.35 1 -25.7 1 -24 1 C-24 1.66 -24 2.32 -24 3 C-23.16855469 2.91621094 -22.33710938 2.83242187 -21.48046875 2.74609375 C-20.39378906 2.64425781 -19.30710938 2.54242188 -18.1875 2.4375 C-17.10855469 2.33308594 -16.02960938 2.22867188 -14.91796875 2.12109375 C-12 2 -12 2 -9 3 C-9 2.34 -9 1.68 -9 1 C-6.04335481 -0.4783226 -3.25770263 -0.06032783 0 0 Z " fill="#B4A055" transform="translate(194,148)"/>
<path d="M0 0 C1.98 0 3.96 0 6 0 C6 3.3 6 6.6 6 10 C7.98 10.66 9.96 11.32 12 12 C12 12.33 12 12.66 12 13 C8.04 13 4.08 13 0 13 C0 8.71 0 4.42 0 0 Z " fill="#3F3938" transform="translate(59,117)"/>
<path d="M0 0 C0.68191406 0.04189453 1.36382812 0.08378906 2.06640625 0.12695312 C2.76378906 0.14951172 3.46117187 0.17207031 4.1796875 0.1953125 C5.8928556 0.25398264 7.60491248 0.34366056 9.31640625 0.43945312 C9.31640625 2.41945313 9.31640625 4.39945312 9.31640625 6.43945312 C8.98640625 6.43945312 8.65640625 6.43945312 8.31640625 6.43945312 C8.31640625 4.78945312 8.31640625 3.13945313 8.31640625 1.43945312 C5.91496358 1.63523233 5.91496358 1.63523233 3.31640625 2.43945312 C2.86265625 3.07882813 2.40890625 3.71820313 1.94140625 4.37695312 C-0.41424292 7.36681553 -3.06907431 7.62107137 -6.68359375 8.43945312 C-6.68359375 7.77945313 -6.68359375 7.11945313 -6.68359375 6.43945312 C-7.34359375 6.43945312 -8.00359375 6.43945312 -8.68359375 6.43945312 C-8.68359375 8.08945313 -8.68359375 9.73945312 -8.68359375 11.43945312 C-9.01359375 11.43945312 -9.34359375 11.43945312 -9.68359375 11.43945312 C-10.01574466 7.86883089 -9.94772541 5.90303115 -8.15234375 2.75195312 C-5.34020035 0.11779348 -3.79595952 -0.09213494 0 0 Z " fill="#9E9FA4" transform="translate(154.68359375,92.560546875)"/>
<path d="M0 0 C2.97 0.495 2.97 0.495 6 1 C6 6.61 6 12.22 6 18 C4.68 18.33 3.36 18.66 2 19 C1.93941406 18.04738281 1.87882813 17.09476563 1.81640625 16.11328125 C1.73261719 14.85902344 1.64882812 13.60476562 1.5625 12.3125 C1.48128906 11.07113281 1.40007812 9.82976562 1.31640625 8.55078125 C1.05508683 5.61819663 0.65201621 2.86558383 0 0 Z " fill="#B9BABE" transform="translate(144,68)"/>
<path d="M0 0 C1.4540625 0.0309375 1.4540625 0.0309375 2.9375 0.0625 C2.9375 0.3925 2.9375 0.7225 2.9375 1.0625 C1.2875 1.0625 -0.3625 1.0625 -2.0625 1.0625 C-2.0625 5.0225 -2.0625 8.9825 -2.0625 13.0625 C-4.7025 13.0625 -7.3425 13.0625 -10.0625 13.0625 C-10.0625 11.0825 -10.0625 9.1025 -10.0625 7.0625 C-10.7225 6.7325 -11.3825 6.4025 -12.0625 6.0625 C-9.4225 6.0625 -6.7825 6.0625 -4.0625 6.0625 C-4.083125 5.258125 -4.10375 4.45375 -4.125 3.625 C-4.03366838 -0.11959638 -3.80090148 0.07756942 0 0 Z " fill="#9E8B39" transform="translate(154.0625,122.9375)"/>
<path d="M0 0 C3.63 0 7.26 0 11 0 C11 1.65 11 3.3 11 5 C13.31 5 15.62 5 18 5 C18 5.33 18 5.66 18 6 C11.73 6 5.46 6 -1 6 C-0.67 4.02 -0.34 2.04 0 0 Z " fill="#8B8B8E" transform="translate(158,118)"/>
<path d="M0 0 C1.65 0.33 3.3 0.66 5 1 C5 1.99 5 2.98 5 4 C7.31 4 9.62 4 12 4 C12 5.65 12 7.3 12 9 C13.98 9 15.96 9 18 9 C18 9.33 18 9.66 18 10 C15.69 10 13.38 10 11 10 C11 9.34 11 8.68 11 8 C9.35 8 7.7 8 6 8 C6 7.34 6 6.68 6 6 C5.34 6.66 4.68 7.32 4 8 C1.525 7.01 1.525 7.01 -1 6 C-0.67 4.02 -0.34 2.04 0 0 Z " fill="#332C2B" transform="translate(47,145)"/>
<path d="M0 0 C0.66 0 1.32 0 2 0 C2 1.98 2 3.96 2 6 C3.98 6 5.96 6 8 6 C8.33 7.65 8.66 9.3 9 11 C12.3 11.33 15.6 11.66 19 12 C19 13.98 19 15.96 19 18 C14.05 17.67 9.1 17.34 4 17 C4 16.67 4 16.34 4 16 C6.97 16 9.94 16 13 16 C13 15.01 13 14.02 13 13 C12.195625 13.020625 11.39125 13.04125 10.5625 13.0625 C8 13 8 13 7 12 C6.95936168 10.33382885 6.957279 8.66611905 7 7 C5.02 7 3.04 7 1 7 C0.67 4.69 0.34 2.38 0 0 Z " fill="#EBD986" transform="translate(125,7)"/>
<path d="M0 0 C6.625 -0.125 6.625 -0.125 10 1 C10 2.98 10 4.96 10 7 C6.37 7 2.74 7 -1 7 C-0.67 4.69 -0.34 2.38 0 0 Z " fill="#ABADB3" transform="translate(42,129)"/>
<path d="M0 0 C1.65 0 3.3 0 5 0 C3.68 0.33 2.36 0.66 1 1 C0.67 4.96 0.34 8.92 0 13 C3.63 13 7.26 13 11 13 C10.34 14.32 9.68 15.64 9 17 C6.6171875 17.609375 6.6171875 17.609375 3.875 17.75 C2.96492188 17.80671875 2.05484375 17.8634375 1.1171875 17.921875 C0.41851562 17.94765625 -0.28015625 17.9734375 -1 18 C-1.02690844 15.37493198 -1.04679404 12.75013827 -1.0625 10.125 C-1.07087891 9.37863281 -1.07925781 8.63226563 -1.08789062 7.86328125 C-1.11328125 2.2265625 -1.11328125 2.2265625 0 0 Z " fill="#D0CEC1" transform="translate(53,69)"/>
<path d="M0 0 C1.98 0 3.96 0 6 0 C6 4.29 6 8.58 6 13 C5.67 13 5.34 13 5 13 C5 11.02 5 9.04 5 7 C3.68 7 2.36 7 1 7 C1 10.63 1 14.26 1 18 C2.65 18 4.3 18 6 18 C6 18.33 6 18.66 6 19 C4.02 19 2.04 19 0 19 C0 12.73 0 6.46 0 0 Z " fill="#BBAB60" transform="translate(145,136)"/>
<path d="M0 0 C1.64574566 -0.02688151 3.29161413 -0.04634123 4.9375 -0.0625 C5.85402344 -0.07410156 6.77054688 -0.08570312 7.71484375 -0.09765625 C10 0 10 0 11 1 C11 2.65 11 4.3 11 6 C7.37 6 3.74 6 0 6 C0 4.02 0 2.04 0 0 Z " fill="#BBA33D" transform="translate(54,75)"/>
<path d="M0 0 C3.63 0 7.26 0 11 0 C11 3.96 11 7.92 11 12 C8.59454362 13.20272819 7.05003047 13.10071472 4.375 13.0625 C3.14910156 13.04896484 3.14910156 13.04896484 1.8984375 13.03515625 C0.95871094 13.01775391 0.95871094 13.01775391 0 13 C0.96679688 12.58621094 0.96679688 12.58621094 1.953125 12.1640625 C4.28770472 11.15242111 4.28770472 11.15242111 4.75 8.375 C4.8325 7.59125 4.915 6.8075 5 6 C6.32 5.67 7.64 5.34 9 5 C9.33 3.68 9.66 2.36 10 1 C6.7 1 3.4 1 0 1 C0 0.67 0 0.34 0 0 Z " fill="#A9A9A9" transform="translate(134,142)"/>
<path d="M0 0 C1.98 0 3.96 0 6 0 C6.042721 1.66611905 6.04063832 3.33382885 6 5 C5.67 5.33 5.34 5.66 5 6 C4.95919217 7.99958364 4.95745644 10.00045254 5 12 C3.35 12 1.7 12 0 12 C0 8.04 0 4.08 0 0 Z " fill="#B5A041" transform="translate(139,124)"/>
<path d="M0 0 C1.258125 -0.020625 2.51625 -0.04125 3.8125 -0.0625 C4.52019531 -0.07410156 5.22789063 -0.08570313 5.95703125 -0.09765625 C8 0 8 0 11 1 C11 2.65 11 4.3 11 6 C7.37 6 3.74 6 0 6 C0 4.02 0 2.04 0 0 Z " fill="#69696C" transform="translate(97,56)"/>
<path d="M0 0 C0.33 0 0.66 0 1 0 C1 5.28 1 10.56 1 16 C-0.65 16 -2.3 16 -4 16 C-4 12.37 -4 8.74 -4 5 C-2.68 4.67 -1.36 4.34 0 4 C0 2.68 0 1.36 0 0 Z " fill="#ADAEB7" transform="translate(143,39)"/>
<path d="M0 0 C2.31 0 4.62 0 7 0 C7 1.98 7 3.96 7 6 C5.02 6 3.04 6 1 6 C1 9.96 1 13.92 1 18 C2.65 18 4.3 18 6 18 C6 18.33 6 18.66 6 19 C4.02 19 2.04 19 0 19 C0 12.73 0 6.46 0 0 Z " fill="#625F60" transform="translate(52,130)"/>
<path d="M0 0 C3.96 0 7.92 0 12 0 C12 1.65 12 3.3 12 5 C8.04 5 4.08 5 0 5 C0 3.35 0 1.7 0 0 Z " fill="#7F7D7C" transform="translate(176,100)"/>
<path d="M0 0 C0.33 0 0.66 0 1 0 C1 8.25 1 16.5 1 25 C-0.98 25 -2.96 25 -5 25 C-5 24.34 -5 23.68 -5 23 C-3.35 23 -1.7 23 0 23 C-0.33 19.04 -0.66 15.08 -1 11 C-2.32 10.67 -3.64 10.34 -5 10 C-5 7.36 -5 4.72 -5 2 C-4.01 2.495 -4.01 2.495 -3 3 C-2.67 3.99 -2.34 4.98 -2 6 C-1.34 6.33 -0.68 6.66 0 7 C0 4.69 0 2.38 0 0 Z " fill="#B0ADA7" transform="translate(144,99)"/>
<path d="M0 0 C1.98 0 3.96 0 6 0 C6 4.29 6 8.58 6 13 C2.04 13 -1.92 13 -6 13 C-6 12.67 -6 12.34 -6 12 C-2.37 12 1.26 12 5 12 C5 10.35 5 8.7 5 7 C3.35 7 1.7 7 0 7 C0 4.69 0 2.38 0 0 Z " fill="#88888E" transform="translate(59,99)"/>
<path d="M0 0 C1.69141656 0.08963062 3.37959602 0.24577676 5.0625 0.4375 C6.44115234 0.59025391 6.44115234 0.59025391 7.84765625 0.74609375 C8.55792969 0.82988281 9.26820313 0.91367188 10 1 C10 2.65 10 4.3 10 6 C6.37 6 2.74 6 -1 6 C-1 1 -1 1 0 0 Z " fill="#B9A136" transform="translate(158,74)"/>
<path d="M0 0 C3.96 0 7.92 0 12 0 C12 1.65 12 3.3 12 5 C10.906875 4.979375 9.81375 4.95875 8.6875 4.9375 C5.05615809 4.81455548 5.05615809 4.81455548 2 6 C1.34 5.67 0.68 5.34 0 5 C0 3.35 0 1.7 0 0 Z " fill="#B5B5B5" transform="translate(163,131)"/>
<path d="M0 0 C2.6875 0.875 2.6875 0.875 5 2 C5 3.98 5 5.96 5 8 C2.69 8 0.38 8 -2 8 C-2 9.98 -2 11.96 -2 14 C-2.33 14 -2.66 14 -3 14 C-3.08082094 12.04233719 -3.13910778 10.08373272 -3.1875 8.125 C-3.22230469 7.03445312 -3.25710937 5.94390625 -3.29296875 4.8203125 C-3.19628906 3.88960938 -3.09960938 2.95890625 -3 2 C-2.01 1.34 -1.02 0.68 0 0 Z " fill="#BFC0C2" transform="translate(44,121)"/>
<path d="M0 0 C2.31 0 4.62 0 7 0 C7 0.33 7 0.66 7 1 C5.35 1 3.7 1 2 1 C2.33 2.65 2.66 4.3 3 6 C4.65 6.33 6.3 6.66 8 7 C8 7.33 8 7.66 8 8 C6.02 8 4.04 8 2 8 C2 15.59 2 23.18 2 31 C1.67 31 1.34 31 1 31 C1 23.41 1 15.82 1 8 C-2.63 8 -6.26 8 -10 8 C-10 7.67 -10 7.34 -10 7 C-6.37 7 -2.74 7 1 7 C0.67 4.69 0.34 2.38 0 0 Z " fill="#D3C58F" transform="translate(131,92)"/>
<path d="M0 0 C1.98 0 3.96 0 6 0 C6 0.33 6 0.66 6 1 C4.35 1 2.7 1 1 1 C1.33 5.62 1.66 10.24 2 15 C2.33 14.67 2.66 14.34 3 14 C4.51928038 13.92820036 6.04167482 13.91607993 7.5625 13.9375 C8.38878906 13.94652344 9.21507812 13.95554688 10.06640625 13.96484375 C10.70449219 13.97644531 11.34257813 13.98804688 12 14 C11.01 14.495 11.01 14.495 10 15 C10 15.66 10 16.32 10 17 C10.66 17.33 11.32 17.66 12 18 C10.7625 18.020625 9.525 18.04125 8.25 18.0625 C7.55390625 18.07410156 6.8578125 18.08570313 6.140625 18.09765625 C4 18 4 18 0 17 C0 11.39 0 5.78 0 0 Z " fill="#797676" transform="translate(28,161)"/>
<path d="M0 0 C1.32 0 2.64 0 4 0 C4.125 7.625 4.125 7.625 3 11 C3.33 11.33 3.66 11.66 4 12 C3.5625 14.0625 3.5625 14.0625 3 16 C2.01 16 1.02 16 0 16 C0 10.72 0 5.44 0 0 Z " fill="#C7AE3D" transform="translate(103,76)"/>
<path d="M0 0 C1.65 0 3.3 0 5 0 C5 3.63 5 7.26 5 11 C3.35 11 1.7 11 0 11 C0 7.37 0 3.74 0 0 Z " fill="#ACADB3" transform="translate(108,143)"/>
<path d="M0 0 C3.63 0 7.26 0 11 0 C11 1.65 11 3.3 11 5 C10.06027344 4.98259766 10.06027344 4.98259766 9.1015625 4.96484375 C7.87566406 4.95130859 7.87566406 4.95130859 6.625 4.9375 C5.40683594 4.92009766 5.40683594 4.92009766 4.1640625 4.90234375 C1.95062858 4.85533666 1.95062858 4.85533666 0 6 C0 4.02 0 2.04 0 0 Z " fill="#909094" transform="translate(134,180)"/>
<path d="M0 0 C3.96 0 7.92 0 12 0 C12 0.33 12 0.66 12 1 C9.36 1 6.72 1 4 1 C4 2.32 4 3.64 4 5 C4.99 5.33 5.98 5.66 7 6 C5.35 6.33 3.7 6.66 2 7 C2 8.32 2 9.64 2 11 C3.32 11.33 4.64 11.66 6 12 C4.02 12 2.04 12 0 12 C0 8.04 0 4.08 0 0 Z " fill="#A8A496" transform="translate(114,81)"/>
<path d="M0 0 C0.33 0 0.66 0 1 0 C1 4.29 1 8.58 1 13 C-2.96 13 -6.92 13 -11 13 C-11 18.94 -11 24.88 -11 31 C-11.33 31 -11.66 31 -12 31 C-12 25.06 -12 19.12 -12 13 C-13.32 12.67 -14.64 12.34 -16 12 C-12.45325997 10.81775332 -10.02477005 11.10670366 -6.3125 11.4375 C-5.13300781 11.53933594 -3.95351562 11.64117187 -2.73828125 11.74609375 C-1.83464844 11.82988281 -0.93101562 11.91367187 0 12 C0 8.04 0 4.08 0 0 Z " fill="#E6D68D" transform="translate(144,25)"/>
<path d="M0 0 C4.16138263 -0.08159574 7.9472484 0.01751476 12 1 C12 3.31 12 5.62 12 8 C11.67 7.34 11.34 6.68 11 6 C10.01 6.33 9.02 6.66 8 7 C7.67 10.96 7.34 14.92 7 19 C6.67 19 6.34 19 6 19 C6 13.06 6 7.12 6 1 C4.02 1 2.04 1 0 1 C0 0.67 0 0.34 0 0 Z " fill="#89898B" transform="translate(127,154)"/>
<path d="M0 0 C0.33 0 0.66 0 1 0 C1 1.65 1 3.3 1 5 C2.98 5 4.96 5 7 5 C7 8.3 7 11.6 7 15 C6.01 15.33 5.02 15.66 4 16 C4 15.34 4 14.68 4 14 C3.34 14 2.68 14 2 14 C1.875 9.25 1.875 9.25 3 7 C2.01 6.67 1.02 6.34 0 6 C0 4.02 0 2.04 0 0 Z " fill="#A7A7A7" transform="translate(58,137)"/>
<path d="M0 0 C3.63 0.33 7.26 0.66 11 1 C11.33 2.65 11.66 4.3 12 6 C7.71 6 3.42 6 -1 6 C-0.67 4.02 -0.34 2.04 0 0 Z " fill="#EAD45F" transform="translate(127,19)"/>
<path d="M0 0 C1.65 0 3.3 0 5 0 C5 3.3 5 6.6 5 10 C3.35 10 1.7 10 0 10 C0 6.7 0 3.4 0 0 Z " fill="#151010" transform="translate(90,131)"/>
<path d="M0 0 C1.65 0 3.3 0 5 0 C5 3.3 5 6.6 5 10 C3.35 10 1.7 10 0 10 C0 6.7 0 3.4 0 0 Z " fill="#ADACB5" transform="translate(139,8)"/>
<path d="M0 0 C1.98 0 3.96 0 6 0 C6 5.94 6 11.88 6 18 C5.67 18 5.34 18 5 18 C5 14.04 5 10.08 5 6 C3.35 6 1.7 6 0 6 C0 4.02 0 2.04 0 0 Z " fill="#88888E" transform="translate(96,161)"/>
<path d="M0 0 C5.94 0 11.88 0 18 0 C18 1.98 18 3.96 18 6 C17.67 6 17.34 6 17 6 C17 4.35 17 2.7 17 1 C13.04 1 9.08 1 5 1 C5 2.65 5 4.3 5 6 C3.35 6 1.7 6 0 6 C0 4.02 0 2.04 0 0 Z " fill="#9E9D97" transform="translate(158,130)"/>
<path d="M0 0 C1.65 0 3.3 0 5 0 C4.67 3.96 4.34 7.92 4 12 C3.01 11.67 2.02 11.34 1 11 C-0.28317892 7.15046324 -0.06643637 4.05261865 0 0 Z " fill="#BDBBC6" transform="translate(140,94)"/>
<path d="M0 0 C5.94 0 11.88 0 18 0 C18 0.33 18 0.66 18 1 C15.36 1 12.72 1 10 1 C10.33 4.3 10.66 7.6 11 11 C8 8 8 8 7.8125 4.8125 C7.874375 3.884375 7.93625 2.95625 8 2 C5.36 2 2.72 2 0 2 C0 1.34 0 0.68 0 0 Z " fill="#CCCBCB" transform="translate(134,62)"/>
<path d="M0 0 C1.98 0 3.96 0 6 0 C6 3.63 6 7.26 6 11 C7.98 11 9.96 11 12 11 C12 11.33 12 11.66 12 12 C9.69 12 7.38 12 5 12 C5 9.69 5 7.38 5 5 C3.35 5 1.7 5 0 5 C0 3.35 0 1.7 0 0 Z " fill="#7E7E83" transform="translate(47,112)"/>
<path d="M0 0 C0.99 0.33 1.98 0.66 3 1 C2.67 5.62 2.34 10.24 2 15 C1.01 15 0.02 15 -1 15 C-1.02703381 13.06257659 -1.04641125 11.12504521 -1.0625 9.1875 C-1.07410156 8.10855469 -1.08570312 7.02960938 -1.09765625 5.91796875 C-1 3 -1 3 0 0 Z " fill="#F2D465" transform="translate(128,101)"/>
<path d="M0 0 C1.80411967 2.75924185 2.0127245 3.88972103 1.625 7.25 C1.41875 8.1575 1.2125 9.065 1 10 C-2.96 10 -6.92 10 -11 10 C-11 9.67 -11 9.34 -11 9 C-8.36 9 -5.72 9 -3 9 C-3.2475 8.2575 -3.495 7.515 -3.75 6.75 C-3.8325 5.8425 -3.915 4.935 -4 4 C-2.0625 1.6875 -2.0625 1.6875 0 0 Z " fill="#A8A8AE" transform="translate(76,89)"/>
<path d="M0 0 C0.66 0 1.32 0 2 0 C2.33 3.3 2.66 6.6 3 10 C-1 8 -1 8 -3 5 C-5.6556728 4.41651248 -5.6556728 4.41651248 -8.625 4.3125 C-9.62789063 4.24675781 -10.63078125 4.18101563 -11.6640625 4.11328125 C-12.43492188 4.07589844 -13.20578125 4.03851563 -14 4 C-14 3.67 -14 3.34 -14 3 C-13.07316406 2.95101562 -12.14632812 2.90203125 -11.19140625 2.8515625 C-9.99386719 2.77679688 -8.79632813 2.70203125 -7.5625 2.625 C-6.36753906 2.55539063 -5.17257813 2.48578125 -3.94140625 2.4140625 C-2.97074219 2.27742188 -2.00007813 2.14078125 -1 2 C-0.67 1.34 -0.34 0.68 0 0 Z " fill="#453F3D" transform="translate(79,96)"/>
<path d="M0 0 C0 1.98 0 3.96 0 6 C-0.99 6 -1.98 6 -3 6 C-3.66 7.32 -4.32 8.64 -5 10 C-5.33 8.68 -5.66 7.36 -6 6 C-7.32 5.67 -8.64 5.34 -10 5 C-10 4.34 -10 3.68 -10 3 C-9.01 3 -8.02 3 -7 3 C-6.67 2.34 -6.34 1.68 -6 1 C-4 0 -4 0 0 0 Z " fill="#A5A5AB" transform="translate(89,87)"/>
<path d="M0 0 C1.4540625 0.0309375 1.4540625 0.0309375 2.9375 0.0625 C2.9375 0.3925 2.9375 0.7225 2.9375 1.0625 C1.2875 1.0625 -0.3625 1.0625 -2.0625 1.0625 C-2.0625 2.7125 -2.0625 4.3625 -2.0625 6.0625 C-1.258125 6.041875 -0.45375 6.02125 0.375 6 C2.9375 6.0625 2.9375 6.0625 3.9375 7.0625 C3.97830783 9.06208364 3.98004356 11.06295254 3.9375 13.0625 C3.6075 13.0625 3.2775 13.0625 2.9375 13.0625 C2.9375 11.4125 2.9375 9.7625 2.9375 8.0625 C0.2975 8.0625 -2.3425 8.0625 -5.0625 8.0625 C-4.046875 0.08258929 -4.046875 0.08258929 0 0 Z " fill="#D2D0CC" transform="translate(166.0625,79.9375)"/>
<path d="M0 0 C0.99 0 1.98 0 3 0 C3.33 0.99 3.66 1.98 4 3 C2.68 3 1.36 3 0 3 C0 7.95 0 12.9 0 18 C1.65 18.33 3.3 18.66 5 19 C5 20.98 5 22.96 5 25 C4.67 25 4.34 25 4 25 C4 23.35 4 21.7 4 20 C2.35 19.67 0.7 19.34 -1 19 C-1.02690104 16.20826945 -1.04679053 13.41679652 -1.0625 10.625 C-1.07087891 9.8309375 -1.07925781 9.036875 -1.08789062 8.21875 C-1.11328125 2.2265625 -1.11328125 2.2265625 0 0 Z " fill="#FAF2CE" transform="translate(54,43)"/>
<path d="M0 0 C0.33 0 0.66 0 1 0 C1 1.65 1 3.3 1 5 C-1.31 5.33 -3.62 5.66 -6 6 C-6 8.97 -6 11.94 -6 15 C-6.33 15 -6.66 15 -7 15 C-7 12.69 -7 10.38 -7 8 C-7.66 8 -8.32 8 -9 8 C-9 6.02 -9 4.04 -9 2 C-8.01 2 -7.02 2 -6 2 C-6 2.66 -6 3.32 -6 4 C-4.68 4 -3.36 4 -2 4 C-1.34 2.68 -0.68 1.36 0 0 Z " fill="#A09FA7" transform="translate(95,13)"/>
<path d="M0 0 C7.75 -0.125 7.75 -0.125 10 1 C10 1.66 10 2.32 10 3 C10.66 3.33 11.32 3.66 12 4 C5.25 4.125 5.25 4.125 3 3 C3 3.66 3 4.32 3 5 C2.01 5 1.02 5 0 5 C0 3.35 0 1.7 0 0 Z " fill="#302929" transform="translate(41,180)"/>
<path d="M0 0 C3.875 0.875 3.875 0.875 5 2 C6.70563778 2.15740605 8.41727244 2.25093392 10.12890625 2.31640625 C11.68061523 2.37924805 11.68061523 2.37924805 13.26367188 2.44335938 C14.35228516 2.48267578 15.44089844 2.52199219 16.5625 2.5625 C17.65498047 2.60568359 18.74746094 2.64886719 19.87304688 2.69335938 C22.58189564 2.79982068 25.29083992 2.90183516 28 3 C28 3.33 28 3.66 28 4 C18.43 4 8.86 4 -1 4 C-0.01 3.67 0.98 3.34 2 3 C2 2.34 2 1.68 2 1 C1.34 0.67 0.68 0.34 0 0 Z " fill="#A8A6A6" transform="translate(42,182)"/>
<path d="M0 0 C1.98 0 3.96 0 6 0 C5.34 2.31 4.68 4.62 4 7 C1.03 7 -1.94 7 -5 7 C-5 6.67 -5 6.34 -5 6 C-3.35 6 -1.7 6 0 6 C0 4.02 0 2.04 0 0 Z " fill="#B6AF93" transform="translate(157,80)"/>
<path d="M0 0 C1.98 0 3.96 0 6 0 C6.33 1.98 6.66 3.96 7 6 C4.69 6 2.38 6 0 6 C0 4.02 0 2.04 0 0 Z " fill="#EDD161" transform="translate(115,13)"/>
<path d="M0 0 C1.98 0 3.96 0 6 0 C6 1.98 6 3.96 6 6 C4.02 6 2.04 6 0 6 C0 4.02 0 2.04 0 0 Z " fill="#BEAB4A" transform="translate(152,130)"/>
<path d="M0 0 C1.98 0 3.96 0 6 0 C6 1.98 6 3.96 6 6 C4.02 6 2.04 6 0 6 C0 4.02 0 2.04 0 0 Z " fill="#524A3C" transform="translate(176,130)"/>
<path d="M0 0 C1.98 0 3.96 0 6 0 C6 1.98 6 3.96 6 6 C4.02 6 2.04 6 0 6 C0 4.02 0 2.04 0 0 Z " fill="#544B37" transform="translate(145,130)"/>
<path d="M0 0 C1.98 0 3.96 0 6 0 C6 1.98 6 3.96 6 6 C4.02 6 2.04 6 0 6 C0 4.02 0 2.04 0 0 Z " fill="#8E8F98" transform="translate(53,93)"/>
<path d="M0 0 C1.32 0 2.64 0 4 0 C4 3.3 4 6.6 4 10 C3.01 9.67 2.02 9.34 1 9 C-0.4783226 6.04335481 -0.06032783 3.25770263 0 0 Z " fill="#D1BA4D" transform="translate(171,51)"/>
<path d="M0 0 C1.2065625 0.0309375 1.2065625 0.0309375 2.4375 0.0625 C2.4375 2.0425 2.4375 4.0225 2.4375 6.0625 C0.4575 6.0625 -1.5225 6.0625 -3.5625 6.0625 C-3.605221 4.39638095 -3.60313832 2.72867115 -3.5625 1.0625 C-2.5625 0.0625 -2.5625 0.0625 0 0 Z " fill="#8F8F98" transform="translate(43.5625,104.9375)"/>
<path d="M0 0 C0.33 0 0.66 0 1 0 C1 1.98 1 3.96 1 6 C1.99 5.67 2.98 5.34 4 5 C4.66 5.33 5.32 5.66 6 6 C6 7.65 6 9.3 6 11 C3.03 10.505 3.03 10.505 0 10 C0 6.7 0 3.4 0 0 Z " fill="#EDD464" transform="translate(77,69)"/>
<path d="M0 0 C1.32 0 2.64 0 4 0 C4 5.61 4 11.22 4 17 C3.34 16.67 2.68 16.34 2 16 C2.03480469 14.87851562 2.03480469 14.87851562 2.0703125 13.734375 C2.09738281 12.25710937 2.09738281 12.25710937 2.125 10.75 C2.14820312 9.77546875 2.17140625 8.8009375 2.1953125 7.796875 C1.99762095 4.96593203 1.40957396 3.41958364 0 1 C0 0.67 0 0.34 0 0 Z " fill="#AFABA9" transform="translate(104,38)"/>
<path d="M0 0 C0.33 0 0.66 0 1 0 C1 1.65 1 3.3 1 5 C2.65 5 4.3 5 6 5 C5.67 5.66 5.34 6.32 5 7 C3.68 6.67 2.36 6.34 1 6 C0.67 6.66 0.34 7.32 0 8 C0 7.34 0 6.68 0 6 C-6.27 6 -12.54 6 -19 6 C-19 5.67 -19 5.34 -19 5 C-12.73 5 -6.46 5 0 5 C0 3.35 0 1.7 0 0 Z " fill="#DAC768" transform="translate(114,14)"/>
<path d="M0 0 C0 0.99 0 1.98 0 3 C0.66 3 1.32 3 2 3 C2 3.66 2 4.32 2 5 C-1.96 5 -5.92 5 -10 5 C-6.96631207 1.96631207 -4.36244224 0 0 0 Z " fill="#ADADAF" transform="translate(106,156)"/>
<path d="M0 0 C0.33 0 0.66 0 1 0 C1.66 2.97 2.32 5.94 3 9 C3.66 9 4.32 9 5 9 C5 7.35 5 5.7 5 4 C5.33 4 5.66 4 6 4 C6 6.64 6 9.28 6 12 C4.02 12 2.04 12 0 12 C0 8.04 0 4.08 0 0 Z " fill="#D6BE4B" transform="translate(108,81)"/>
<path d="M0 0 C1.98 0 3.96 0 6 0 C6.33 1.98 6.66 3.96 7 6 C4.69 5.67 2.38 5.34 0 5 C0 3.35 0 1.7 0 0 Z " fill="#F6E07B" transform="translate(126,14)"/>
<path d="M0 0 C2.31 0 4.62 0 7 0 C7 1.65 7 3.3 7 5 C8.98 5 10.96 5 13 5 C13 5.33 13 5.66 13 6 C10.69 6 8.38 6 6 6 C6 5.34 6 4.68 6 4 C4.35 4 2.7 4 1 4 C0.67 2.68 0.34 1.36 0 0 Z " fill="#403A39" transform="translate(52,149)"/>
<path d="M0 0 C1.98 0 3.96 0 6 0 C6 0.66 6 1.32 6 2 C6.66 2 7.32 2 8 2 C7.67 3.32 7.34 4.64 7 6 C4.69 5.34 2.38 4.68 0 4 C0 2.68 0 1.36 0 0 Z " fill="#C9B247" transform="translate(146,64)"/>
<path d="M0 0 C1.65 0 3.3 0 5 0 C5 1.98 5 3.96 5 6 C3.02 6 1.04 6 -1 6 C-0.67 4.02 -0.34 2.04 0 0 Z " fill="#BCBCBE" transform="translate(96,167)"/>
<path d="M0 0 C1.65 0 3.3 0 5 0 C5.33 1.98 5.66 3.96 6 6 C5.01 6.495 5.01 6.495 4 7 C1.875 6.0625 1.875 6.0625 0 5 C0 3.35 0 1.7 0 0 Z " fill="#F4E07B" transform="translate(139,75)"/>
<path d="M0 0 C1.134375 0.020625 2.26875 0.04125 3.4375 0.0625 C3.1075 0.7225 2.7775 1.3825 2.4375 2.0625 C0.7875 2.0625 -0.8625 2.0625 -2.5625 2.0625 C-2.5625 7.6725 -2.5625 13.2825 -2.5625 19.0625 C-2.8925 19.0625 -3.2225 19.0625 -3.5625 19.0625 C-3.7563211 16.08361874 -3.94285102 13.10459754 -4.125 10.125 C-4.18107422 9.27486328 -4.23714844 8.42472656 -4.29492188 7.54882812 C-4.36743164 6.33549805 -4.36743164 6.33549805 -4.44140625 5.09765625 C-4.4885376 4.3487915 -4.53566895 3.59992676 -4.58422852 2.82836914 C-4.54276877 -0.54105002 -3.40608102 0.05975581 0 0 Z " fill="#ADA683" transform="translate(92.5625,17.9375)"/>
<path d="M0 0 C1.65 0 3.3 0 5 0 C5 1.98 5 3.96 5 6 C3.35 6 1.7 6 0 6 C0 4.02 0 2.04 0 0 Z " fill="#A1A0A4" transform="translate(176,112)"/>
<path d="M0 0 C1.98 0 3.96 0 6 0 C6 1.65 6 3.3 6 5 C4.02 5 2.04 5 0 5 C0 3.35 0 1.7 0 0 Z " fill="#8B8C93" transform="translate(46,88)"/>
<path d="M0 0 C1.98 0 3.96 0 6 0 C6 1.65 6 3.3 6 5 C4.02 5 2.04 5 0 5 C0 3.35 0 1.7 0 0 Z " fill="#EED567" transform="translate(109,75)"/>
<path d="M0 0 C1.65 0 3.3 0 5 0 C5 1.98 5 3.96 5 6 C3.35 5.67 1.7 5.34 0 5 C0 3.35 0 1.7 0 0 Z " fill="#939397" transform="translate(145,173)"/>
<path d="M0 0 C0.33 0 0.66 0 1 0 C1 1.65 1 3.3 1 5 C2.98 5 4.96 5 7 5 C7 5.33 7 5.66 7 6 C5.02 6 3.04 6 1 6 C1 7.65 1 9.3 1 11 C2.65 11 4.3 11 6 11 C6 11.33 6 11.66 6 12 C4.02 12 2.04 12 0 12 C0 10.02 0 8.04 0 6 C-1.98 6 -3.96 6 -6 6 C-6 5.67 -6 5.34 -6 5 C-4.02 5 -2.04 5 0 5 C0 3.35 0 1.7 0 0 Z " fill="#A4A5AB" transform="translate(46,106)"/>
<path d="M0 0 C0.33 0 0.66 0 1 0 C1 2.31 1 4.62 1 7 C2.65 7 4.3 7 6 7 C6 7.33 6 7.66 6 8 C2.7 8 -0.6 8 -4 8 C-4 7.34 -4 6.68 -4 6 C-3.34 6 -2.68 6 -2 6 C-1.855625 5.195625 -1.71125 4.39125 -1.5625 3.5625 C-1 1 -1 1 0 0 Z " fill="#BEBDB7" transform="translate(138,11)"/>
<path d="M0 0 C2.475 0.495 2.475 0.495 5 1 C5 2.65 5 4.3 5 6 C3.35 6 1.7 6 0 6 C0 4.02 0 2.04 0 0 Z " fill="#F3E07C" transform="translate(121,7)"/>
<path d="M0 0 C3.96 0 7.92 0 12 0 C12 1.98 12 3.96 12 6 C10.35 5.67 8.7 5.34 7 5 C7.33 4.01 7.66 3.02 8 2 C5.36 1.67 2.72 1.34 0 1 C0 0.67 0 0.34 0 0 Z " fill="#AA9748" transform="translate(176,105)"/>
<path d="M0 0 C0.66 1.32 1.32 2.64 2 4 C2.99 3.67 3.98 3.34 5 3 C5.66 3.66 6.32 4.32 7 5 C6.34 5 5.68 5 5 5 C5 5.66 5 6.32 5 7 C1.37 7 -2.26 7 -6 7 C-6 6.67 -6 6.34 -6 6 C-4.02 6 -2.04 6 0 6 C0 4.02 0 2.04 0 0 Z " fill="#B9A440" transform="translate(182,130)"/>
<path d="M0 0 C2.31 0 4.62 0 7 0 C7 1.98 7 3.96 7 6 C5.02 6 3.04 6 1 6 C1.99 5.67 2.98 5.34 4 5 C3.73323796 3.01508358 3.73323796 3.01508358 3 1 C2.01 0.67 1.02 0.34 0 0 Z " fill="#9D9CA2" transform="translate(52,124)"/>
<path d="M0 0 C3.3 0 6.6 0 10 0 C10 0.66 10 1.32 10 2 C6.7 2.66 3.4 3.32 0 4 C0 2.68 0 1.36 0 0 Z " fill="#B9A033" transform="translate(66,81)"/>
<path d="M0 0 C1.98 0 3.96 0 6 0 C5.67 1.65 5.34 3.3 5 5 C3.35 4.67 1.7 4.34 0 4 C0 2.68 0 1.36 0 0 Z " fill="#EDD563" transform="translate(133,75)"/>
<path d="M0 0 C0.33 0 0.66 0 1 0 C1.33 1.65 1.66 3.3 2 5 C3.32 5.33 4.64 5.66 6 6 C6 4.02 6 2.04 6 0 C6.33 0 6.66 0 7 0 C7 2.31 7 4.62 7 7 C5.35 7 3.7 7 2 7 C2 8.65 2 10.3 2 12 C1.67 12 1.34 12 1 12 C-0.47075246 7.58774263 -1.36884358 4.51718381 0 0 Z " fill="#A9A9AB" transform="translate(144,173)"/>
<path d="M0 0 C0.66 0.33 1.32 0.66 2 1 C2 2.65 2 4.3 2 6 C0.02 6 -1.96 6 -4 6 C-4 4.68 -4 3.36 -4 2 C-2.68 2 -1.36 2 0 2 C0 1.34 0 0.68 0 0 Z " fill="#EBD261" transform="translate(58,68)"/>
<path d="M0 0 C0.33 1.32 0.66 2.64 1 4 C-2.63 4 -6.26 4 -10 4 C-10 3.34 -10 2.68 -10 2 C-6.7 1.34 -3.4 0.68 0 0 Z " fill="#AAAABA" transform="translate(106,14)"/>
<path d="M0 0 C0 1.98 0 3.96 0 6 C-1.65 6 -3.3 6 -5 6 C-5 4.35 -5 2.7 -5 1 C-1.125 0 -1.125 0 0 0 Z " fill="#D0B745" transform="translate(121,7)"/>
<path d="M0 0 C1.65 0 3.3 0 5 0 C5 1.65 5 3.3 5 5 C3.35 5 1.7 5 0 5 C0 3.35 0 1.7 0 0 Z " fill="#B1B1B1" transform="translate(3,187)"/>
<path d="M0 0 C1.65 0 3.3 0 5 0 C5 1.65 5 3.3 5 5 C3.35 5 1.7 5 0 5 C0 3.35 0 1.7 0 0 Z " fill="#949294" transform="translate(140,149)"/>
<path d="M0 0 C1.65 0 3.3 0 5 0 C5 1.65 5 3.3 5 5 C3.35 5 1.7 5 0 5 C0 3.35 0 1.7 0 0 Z " fill="#B5A137" transform="translate(152,81)"/>
<path d="M0 0 C1.65 0 3.3 0 5 0 C5 1.65 5 3.3 5 5 C3.35 5 1.7 5 0 5 C0 3.35 0 1.7 0 0 Z " fill="#69686B" transform="translate(127,57)"/>
<path d="M0 0 C1.65 0 3.3 0 5 0 C5 1.65 5 3.3 5 5 C3.35 5 1.7 5 0 5 C0 3.35 0 1.7 0 0 Z " fill="#CAB341" transform="translate(109,14)"/>
<path d="M0 0 C1.32 0 2.64 0 4 0 C4 3.3 4 6.6 4 10 C3.67 10 3.34 10 3 10 C2.67 7.69 2.34 5.38 2 3 C1.67 4.98 1.34 6.96 1 9 C0.67 9 0.34 9 0 9 C0 6.03 0 3.06 0 0 Z " fill="#100B0B" transform="translate(66,162)"/>
<path d="M0 0 C0.66 0.33 1.32 0.66 2 1 C1.67 2.65 1.34 4.3 1 6 C-0.65 6.33 -2.3 6.66 -4 7 C-4.33 6.34 -4.66 5.68 -5 5 C-3.35 3.35 -1.7 1.7 0 0 Z " fill="#CFB64E" transform="translate(184,142)"/>
<path d="M0 0 C1.32 0 2.64 0 4 0 C4 1.65 4 3.3 4 5 C2.68 5.33 1.36 5.66 0 6 C-0.38218767 4.34385343 -0.71395102 2.67542976 -1 1 C-0.67 0.67 -0.34 0.34 0 0 Z " fill="#DAC050" transform="translate(115,94)"/>
<path d="M0 0 C0.33 0 0.66 0 1 0 C0.67 3.96 0.34 7.92 0 12 C-0.99 11.67 -1.98 11.34 -3 11 C-2.835 10.2575 -2.67 9.515 -2.5 8.75 C-1.88074304 5.80993422 -1.88074304 5.80993422 -2 2 C-1.34 2 -0.68 2 0 2 C0 1.34 0 0.68 0 0 Z " fill="#B8B8BD" transform="translate(144,94)"/>
<path d="M0 0 C0 1.65 0 3.3 0 5 C-1.65 5 -3.3 5 -5 5 C-5 3.68 -5 2.36 -5 1 C-3 0 -3 0 0 0 Z " fill="#EBD661" transform="translate(132,50)"/>
<path d="M0 0 C1.98 0 3.96 0 6 0 C5.67 1.65 5.34 3.3 5 5 C3.68 4.67 2.36 4.34 1 4 C0.67 2.68 0.34 1.36 0 0 Z " fill="#BEAA44" transform="translate(145,136)"/>
<path d="M0 0 C1.65 0 3.3 0 5 0 C5 1.32 5 2.64 5 4 C3.35 4 1.7 4 0 4 C0 2.68 0 1.36 0 0 Z " fill="#7E7D81" transform="translate(189,149)"/>
<path d="M0 0 C1.32 0 2.64 0 4 0 C4 1.65 4 3.3 4 5 C2.68 5 1.36 5 0 5 C0 3.35 0 1.7 0 0 Z " fill="#373130" transform="translate(54,131)"/>
<path d="M0 0 C1.65 0 3.3 0 5 0 C5 1.32 5 2.64 5 4 C3.35 4 1.7 4 0 4 C0 2.68 0 1.36 0 0 Z " fill="#7C7975" transform="translate(189,107)"/>
<path d="M0 0 C1.32 0 2.64 0 4 0 C4 1.65 4 3.3 4 5 C2.68 5 1.36 5 0 5 C0 3.35 0 1.7 0 0 Z " fill="#ACADB4" transform="translate(42,88)"/>
<path d="M0 0 C0.66 0 1.32 0 2 0 C2 1.32 2 2.64 2 4 C-1.96 4 -5.92 4 -10 4 C-10 3.67 -10 3.34 -10 3 C-7.03 3 -4.06 3 -1 3 C-0.67 2.01 -0.34 1.02 0 0 Z " fill="#B3A033" transform="translate(81,82)"/>
<path d="M0 0 C1.32 0 2.64 0 4 0 C4 1.65 4 3.3 4 5 C2.68 5 1.36 5 0 5 C0 3.35 0 1.7 0 0 Z " fill="#A0A0A5" transform="translate(158,131)"/>
<path d="M0 0 C1.32 0 2.64 0 4 0 C4 1.65 4 3.3 4 5 C3.01 5 2.02 5 1 5 C0.67 3.35 0.34 1.7 0 0 Z " fill="#9E9EA5" transform="translate(164,88)"/>
<path d="M0 0 C0.99 0.33 1.98 0.66 3 1 C3 2.32 3 3.64 3 5 C1.68 5 0.36 5 -1 5 C-0.67 3.35 -0.34 1.7 0 0 Z " fill="#26201F" transform="translate(122,185)"/>
<path d="M0 0 C1.98 0 3.96 0 6 0 C6.33 1.98 6.66 3.96 7 6 C6.34 6 5.68 6 5 6 C5 5.34 5 4.68 5 4 C4.34 4 3.68 4 3 4 C3 3.34 3 2.68 3 2 C2.01 1.34 1.02 0.68 0 0 Z " fill="#ABABAC" transform="translate(84,167)"/>
<path d="M0 0 C2.97 0 5.94 0 9 0 C9.66 1.32 10.32 2.64 11 4 C10.01 3.67 9.02 3.34 8 3 C8 2.34 8 1.68 8 1 C7.4225 1.20625 6.845 1.4125 6.25 1.625 C4 2 4 2 0 0 Z " fill="#2F2827" transform="translate(67,100)"/>
</svg>
